<?xml version="1.0" encoding="UTF-8"?>
<svg id="Layer_1" data-name="Layer 1" xmlns="http://www.w3.org/2000/svg" xmlns:xlink="http://www.w3.org/1999/xlink" viewBox="0 0 288 288">
  <defs>
    <style>
      .cls-1 {
        fill: #474747;
      }

      .cls-2 {
        fill: #848484;
      }

      .cls-3 {
        fill: #828282;
        stroke: #383838;
      }

      .cls-3, .cls-4, .cls-5, .cls-6, .cls-7 {
        stroke-miterlimit: 10;
      }

      .cls-3, .cls-5 {
        stroke-width: .75px;
      }

      .cls-8 {
        fill: #fff;
      }

      .cls-9 {
        fill: #262626;
      }

      .cls-10 {
        fill: #424242;
      }

      .cls-11 {
        fill: #cecece;
      }

      .cls-12 {
        fill: #5b5b5b;
      }

      .cls-13 {
        fill: #262626;
      }

      .cls-14 {
        fill: none;
      }

      .cls-4, .cls-5 {
        stroke: #000;
      }

      .cls-6 {
        stroke: #5b5b5b;
      }

      .cls-6, .cls-15 {
        fill: #7a7a7a;
      }

      .cls-16 {
        fill: #a0a0a0;
      }

      .cls-17 {
        fill: #565656;
      }

      .cls-18 {
        fill: #8a8a8a;
      }

      .cls-19 {
        fill: #6d6d6d;
      }

      .cls-7 {
        stroke: #cecece;
      }

      .cls-20 {
        fill: #aaa;
      }

      .cls-21 {
        clip-path: url(#clippath);
      }

      .cls-22 {
        fill: #b5f0ff;
      }

      .cls-23 {
        fill: #faffbb;
      }

      .cls-24 {
        fill: #b5b5b5;
      }

      .cls-25 {
        fill: #e8e8e8;
      }
    </style>
    <clipPath id="clippath">
      <rect class="cls-14" width="288" height="288"/>
    </clipPath>
  </defs>
  <g class="cls-21">
    <g>
      <rect class="cls-22" x="-50.99" y="-4.36" width="536.99" height="292.9"/>
      <path class="cls-23" d="M306.1,112.7l-1.63-1.61c-8.75-8.61-21.97-10.79-33.01-5.43l-2,.97c-8.27,4.01-16.83-4.91-12.49-13l.03-.05c6.07-11.35,3.95-25.34-5.22-34.37h0c-6.58-6.48-.96-17.58,8.16-16.11l1.75.28c12.22,1.97,24.35-4.03,30.19-14.95l.91-1.71c4.29-8.02,16.33-5.97,17.73,3.02l.19,1.22c1.93,12.42,11.64,22.19,24.05,24.19l1.02.16c9.15,1.47,10.97,13.85,2.63,17.89l-.36.17c-11.47,5.56-17.97,17.96-16.01,30.56l.09.55c1.4,9.02-9.51,14.62-16.02,8.21Z"/>
      <path class="cls-23" d="M128.67,272.03l-41.2-40.56c-9.48-9.33-23.8-11.69-35.77-5.88L-.72,251c-8.96,4.34-18.23-5.32-13.54-14.09l25.92-48.41c6.58-12.29,4.28-27.45-5.66-37.23l-39.43-38.82c-7.13-7.02-1.04-19.05,8.84-17.46l57.32,9.24c13.24,2.13,26.38-4.37,32.71-16.2l26.88-50.21c4.65-8.69,17.69-6.47,19.2,3.27l8.57,55.2c2.09,13.46,12.61,24.04,26.06,26.21l56.54,9.11c9.91,1.6,11.88,15,2.85,19.38l-50.64,24.55c-12.43,6.03-19.47,19.46-17.35,33.11l8.46,54.48c1.52,9.78-10.31,15.84-17.36,8.9Z"/>
      <path class="cls-18" d="M107.95,158.9s3.26,25.35.25,28.27c-6.29,6.1-13.16,6.96-13.43,10.92-.08,1.15.57,4.04,30.35,14.52,16.29,5.73,21.32,6.71,27.48,6.25,7.94-.6,14.17-3.32,18.03-5.41,7.87-6.66,15.74-13.32,23.61-19.98v-5l-3.88-1.91c-3.7-1.16-9.91-4.64-10.5-8.37-.93-5.82-.56-15.99-.02-20.89.86-7.91-71.9,1.61-71.9,1.61Z"/>
      <path class="cls-19" d="M179.55,160.99s-.6,14.03.33,17.19c0,0-9.6-7.5-15.62.7l15.29-17.89Z"/>
      <path class="cls-19" d="M109.23,184.01s5.64-3.45,19.56-.89c2.1.39,3.12.29,3.34-.14.6-1.2-14.3-4.05-22.9-15.8-.13-.18-.24-.33-.31-.43.02.64.06,1.69.12,2.98.23,4.98.43,6.49.43,9.2,0,1.15-.04,2.91-.24,5.08Z"/>
      <path class="cls-18" d="M198.55,121.01c-1.11-3.75-3.73-8.36-5.91-8.24-2.97.17-4.48,7.87-4.48,7.87-.09-3.7-.51-6.97-1.62-14.62-1.13-7.77-1.72-11.65-2.58-13.74-5.36-13.11-31.69-16.03-46.48-15.35-7.51.34-20.99,2.01-36.39,10.36-.92,2.2-1.81,4.63-2.58,7.29-1.74,6.02-2.4,11.5-2.58,16.03-.02-.01-.05-.04-.08-.06-1.98-1.43-5.42-.52-6.91.35-3.18,1.84-3.25,6.75-3.34,12.97-.07,4.65.58,7.8,1.45,11.99,1.77,8.56,3.49,9.68,4.27,10.07,1.61.81,4.62,1.41,6.57-.16.47-.37.95-.79,1.41-1.25,1.09,3.55,2.23,6.96,3.4,10.21,2.03,5.65,5.04,10.92,8.95,15.55,1.41,1.66,2.97,3.41,4.68,5.22,6.55,6.92,15.24,14,23.83,14.62,8.25.6,17.68-5.14,25.26-11.26,9.79-7.91,16.69-18.64,19.75-30.64.5-1.97.97-4.02,1.39-6.13.08.69.22,1.3.4,1.84,1.35,4.09,7.3,4.11,8.77.06,1.59-4.38,2.42-8.15,2.88-10.98,1.19-7.21.38-10.55-.05-12Z"/>
      <path class="cls-19" d="M158.55,159.1s6.97-2.49,7.43,1.88,1.73,6.04,1.73,6.04l1.15-8.63s-1.15-5.99-9.1-2.92c-7.94,3.07-1.21,3.63-1.21,3.63Z"/>
      <path class="cls-17" d="M121.97,158.5s11.11,7.1,20.74,6.98c.22.31,11.74.06,19.28-9.06-6.64,1.56-12.25,2.21-16.35,2.49-6.43.44-12.06.2-17.16-.03-2.7-.12-4.94-.27-6.5-.38Z"/>
      <path class="cls-12" d="M102,85.58s9.88,12.66-5.07,15.76c0,0,9.6-3.12,5.07-15.76Z"/>
      <path class="cls-12" d="M64.04,74.96s-5.67,14.1-6.23,7.14c0,0-.38,13.55,6.23-7.14Z"/>
      <path class="cls-12" d="M77.26,94.37s-7.55-4.94-8.88,3.11c0,0,2.83-4.21,8.88-3.11Z"/>
      <path class="cls-19" d="M187.29,138.2l3.52-2.48c.28-.34.79-.38,1.13-.1l.44.37c.59.5,1.52.31,1.85-.39.93-1.96,2.24-5.8.51-9.42-.18-.37-.73-.38-.92,0l-.86,1.72c-.19.37-.73.36-.9-.02l-3.88-8.65-.89,18.97Z"/>
      <path class="cls-12" d="M70.44,59.94s3.29-8.09,8.07,1.91c4.79,10,1.71.46,1.71.46,0,0-6.41-13.17-9.78-2.36Z"/>
      <path class="cls-12" d="M186.81,54.66s12.97-2.32,14.31,5.54c0,0-1.29-12.91-14.31-5.54Z"/>
      <path class="cls-19" d="M191.32,118.37s6.43,4.47,5.91,10.37c-.52,5.9-2.35,9.44-2.35,9.44l1.48,1.1c.39-1.31,2.83-9.61,2.26-14.59-.11-.99-.36-1.99-.46-2.38-.64-2.46-1.34-5.17-3.06-5.63-1.52-.4-3.19,1.11-3.78,1.69Z"/>
      <path class="cls-1" d="M181.73,181.43c.48.46,1.22,1.14,2.19,1.88.97.74,1.3.88,2,1.4.89.67,2.43,1.81,3.06,3.2.82,1.82-.02,3.81-.43,4.76-3.66,8.61-21.6,15.75-21.6,15.75-6.97,3.38-10.81,4.31-15.92,4.97-22.69,2.97-47.81-12.62-46.55-21.34.14-.99.67-2.17,2.06-3.41l-70.82,31.97c-8.68,3.92-16.36,9.63-22.52,16.73l-3.52,4.07c-5.28,6.09-9.17,13.19-11.43,20.84l-11.48,38.84,306.12-6.75-10.78-55.94c-.98-5.06-3-9.88-5.94-14.16l-5.05-7.34c-3.57-5.19-8.86-9.04-14.99-10.91l-58.98-17.99c-.74-.22-1.59-.54-2.47-1.02-1.65-.9-2.83-2.05-3.66-3.08s-2.09-1.71-3.45-1.86l-5.83-.62Z"/>
      <path class="cls-15" d="M91.79,112.44s36.17-36.49,67.6-20.07c31.42,16.42,29.98,24.84,29.98,24.84v-33.97s-41.69-8.29-41.69-8.29l-39.09,5.75-16.79,18.26v13.48Z"/>
      <path class="cls-16" d="M142.93,95.67c-8,1-17.56-2.32-17.72-7.09-.14-4.43,7.87-8.9,14.88-9.77,8-1,17.56,2.32,17.72,7.09.14,4.43-7.87,8.9-14.88,9.77Z"/>
      <path class="cls-16" d="M158.55,130.45s13.43,1.27,18.62-2.29c.14-.1.52-.37.89-.25.73.22,1.3,1.92.2,13.96-.52,5.71-.99,9.14.54,9.87.64.3,1.38.02,1.66-.09,4.99-1.93,10.2-19.75,6.76-39.06-1.28-7.2-2.84-9.43-4.82-10.69-6.98-4.42-18.97,3.52-18.97,3.52,0,0-19.16,12.04-4.89,25.03Z"/>
      <path class="cls-19" d="M128.59,99.47c2.32,9.65,1,13.18-.91,14.47-2.02,1.37-4.87.36-7.14.32-1.8-.99-13.55-7.27-19.47-5.2-6.05,2.12-7.13,19.45-.62,33.91.51,1.12.88,2.3,1.19,3.49,3.79,14.54,19.59,34.71,20.33,31.21,1.33.39.28-8.42-2.62-16.67-1.16-3.31-5.28-7.38-9.31-10.73-5.04-4.19-7.79-10.46-7.18-16.86.51-5.31,3.15-9.35,10.54-8.06.48.08.94.15,1.39.22,0,0,0,0,0,0,4.13,1.89,8.34,3.9,12.61,6.07,1.89.96,3.75,1.92,5.58,2.89,1.34.66,2.94-.22,3.04-1.68.35-5.08,1.01-15.15,1.13-20.02.17-6.67-8.55-13.34-8.55-13.34Z"/>
      <path class="cls-10" d="M219.2,83.33s1.71-3.38-2.23-4.15c0,0,1.58-3.06-3.19-4.89,1.95-1.42,5.75-3.5,5.61,1.85,0,0,3.44-5.99-6.88-5.65.47-4.41-.45-11.82-11.95-12.18,0,0-6.96-4.45-12.08-4.45,0,0,0-.96-.29-2.29,1.72-.17,4.59-4.54,4.59-4.54,0,0,1.53-9.98-7.55-8.28,0,0-1.75-6.9-7.99-7.54-6.24-.64-8.98,4.67-8.98,4.67,0,0-13.57-9.34-13.57.32,0,.43,0,.84.01,1.23-1.7-1.01-3.69-1.63-5.87-1.27-6.83,1.15-6.93,5.18-6.93,5.18,0,0-5.33-3.87-9.55-1.82,0,0-1.21-.58-2.89-1.12.66-11.19-4.88-8.04-4.88-8.04.11-7.13-10.62-5.41-10.62-5.41-4.16-5.09-8.76,2.33-8.76,2.33,4.49-4.03,5.47-1.27,5.47-1.27-1.75.21-3.39,2.76-3.06,3.82.33,1.06,5.03.42,5.03.42-.33,2.65-4.27,2.02-4.27,2.02,2.96,2.76,6.24-.64,6.24-.64,4.38,5.09,9.3,3.61,12.04,1.59,1.63-1.2,1.39,1.94.94,4.66-2.55-.59-5.47-.73-7,1.04,0,0-6.11-6.9-10.1-1.44,0,0-9.31-2.34-16.64.96-1.76-1.62-5.02-2.83-10.83-.27,0,0-4.91-7.65-10.68,2.24-3.32-1.04-6.69.53-7.7,2.99-1.18,2.86.84,6.89,4.91,7.75,2.45.69,5.09-.27,6.45-2.33,1.4-2.13,1.13-4.95-.67-6.81,0,0-.19-6.63,5.39-3.64,0,0-4.81,2.8-2.12,7.09s3.56-4.57,3.56-4.57c0,0,5.45-2.25,8.9-.79-2.18,1.64-3.98,4.01-4.99,7.41,0,0-12.45,1.82-5.17,9.57,0,0-2.35,3.87-.7,5.24,0,0-6.34-2.51-6.81,2.96,0,0-10.1-7.06-10.1,4.56,0,0-5.4,5.7,2.11,9.34,0,0-2.82,6.38.23,8.66,3.05,2.28,5.64,0,5.64,0,0,0-.23,4.56,3.29,5.7,0,0-1.64,3.64,1.17,3.87,0,0-5.12,7.47,3.76,10.71,0,0-4.95,3.02,1.41,4.1,6.36,1.08,8.22-4.78,8.22-4.78,0,0,6.2.7,7.78-6.07,0,0,6.31-7.14,6.08-12.16,0,0,5.87,3.64,9.4-1.37,3.52-5.01,4.13-2.45,4.13-2.45,0,0,1.61,2.91,5.43,2,0,0-1.34,10.48,8.76,5.01,0,0,8.22,1.82,7.99-2.96-.23-4.78-2.35-10.25-2.35-10.25,0,0,5.11.68,5.61,8.2,0,0,2.05,6.74,7.19,5.98,0,2.4.45,4.82,2.5,3.04l3.59-3.11s-3.24,2.24-4.92-.21c4.56-1.51,4.36-6.61,4.36-6.61,0,0,2.25-.23,2.55-2.47,0,2.35.28,8.4,2.15,8.4,0,0-4.7,5.01-3.99,7.75.7,2.73,10.1,4.1,12.69.23,0,0,7.75-3.42,9.63-9.34,0,0-.47,10.02,3.29,10.25,0,0-.01,8.82,3.05,8.88,0,0,2.8,15.72,6.81,9.8,0,0,8.47.91,8.35-5.01,0,0,7.39,2.96,8.33.46s-2.35-5.92-2.35-5.92c0,0,2.35-3.42.94-5.01,0,0,4.23-.23,5.64-1.59,0,0,8.74,1.4,6.11-5.09l-3.54-1.78s3.48-1.02,4.04-2.93c0,0,10.4-6.6.82-9.73ZM111.71,28.48l-.38.54c-.27.39-.75.56-1.2.43l-.08-.02c-.79-.23-1.07-1.21-.52-1.83l.46-.52c.39-.44,1.06-.5,1.51-.13.46.37.55,1.04.21,1.52ZM73.47,47.32c-1.15,1.49-3.48,1.8-5.08.57-1.87-1.2-2.18-3.7-.86-5.19,1.31-1.48,3.88-1.58,5.4,0,1.4,1.21,1.6,3.25.55,4.63ZM164.47,40.74s-4.07.64-3.81,2.8c0,0-1.12-1.91-3.02-3.8,1.29-3.13,3.75-6.45,7.46-.68.34.53.67.99.98,1.39-1.21.14-1.61.29-1.61.29ZM172.61,44.05s3.1-3.47-1.06-3.79c.57-1.44.78-3,.78-3,0,0,6.85-5.97,7.41,6.38-1.92-.28-4.27-.2-7.13.41ZM186.94,48.28c-.77-1.32-1.92-2.61-3.64-3.52l.3-1.98s3.61-2.58,3.34,5.5Z"/>
      <path class="cls-12" d="M107.85,119.38s16.03-.78,17.99-4.14c0,0-24.57,2.75-25.95.51-1.66-1.58,10.98-20.26,34.14-3.2,0,0-2.19,18.9-9.22,19.79,0,0,4.5-10.4,3.11-14.65,0,0-13.95,4.03-20.06,1.68Z"/>
      <path class="cls-12" d="M151.38,128.16s-7.48-8.7-4.65-17.56c2.82-8.86,29.9-1.61,32.23,4.99,0,0-10.13,3.38-25.25-.64,0,0,10.13,6.93,17.94,5.64,0,0-12.36,3.46-19-3.26,0,0-1.93,2.94-1.26,10.83Z"/>
      <path class="cls-12" d="M126.47,164.43c5.52,4.22,9.15,4.55,11.47,4.02,1.52-.35,2.87-1.15,5.52-1.24,2.74-.09,3.91.68,5.74.82,2.11.17,5.22-.48,9.35-4.43-3.78,5.64-6.81,6.82-8.92,6.8-1.89-.02-2.93-1-6.05-1.03-2.91-.02-4.22.81-5.95,1.03-2.46.31-6.09-.58-11.15-5.97Z"/>
      <path class="cls-12" d="M171.18,146.66s3.87,3.91,3.3,8.82c.1.38,2.81-7.19-3.3-8.82Z"/>
      <path class="cls-19" d="M163.22,142.09s2.22,4.04,7.96,4.57c0,0-6.72-4.13-7.96-4.57Z"/>
      <path class="cls-16" d="M141.4,136.51c-1.61.44-3.11-.96-2.72-2.53.88-3.49,2.92-7.95,7.41-4.78,6.89,4.87,2.37,5.36,2.37,5.36l-7.06,1.95Z"/>
      <path class="cls-16" d="M193.16,122.05c1.04,1.72,4.63,8.47,1.18,14.26-.1.16-.07.37.06.51h0c.21.21.57.14.69-.12.97-2.08,3.99-9.75-1.19-15.18-.14-.15-.36-.18-.55-.1h0c-.25.12-.34.41-.2.64Z"/>
      <path class="cls-25" d="M191.66,141.16c-.69.06-1.21.71-1.08,1.4.08.99.97,1.55,1.58,1.4.54-.13,1-.84.83-1.65-.03-.69-.65-1.21-1.33-1.15Z"/>
      <path class="cls-12" d="M89.26,135.64l-2.14-6.48c-.5-1.51-.46-3.15.12-4.63l3.2-8.27c.24-.62,1.15-.58,1.34.05l1.47,4.94c.38,1.28-.05,2.65-1.1,3.5l-2.12,1.73c-.78.64-1.15,1.63-.97,2.6l.82,4.38c.12.67.83,1.08,1.49.87h0c.26-.08.54,0,.7.22l2.19,2.84c.31.4.97.17.94-.33l-.42-6.85.42-19.71-5.49,2.54c-1.6.8-2.68,2.32-2.89,4.05l-1.16,9.66,1.91,9.31c.15.75,1.16.94,1.59.3h0c.15-.22.19-.48.1-.73Z"/>
      <path class="cls-19" d="M90.39,135.44c-.42-1.06-.83-2.31-1.14-3.73-.23-1.06-.37-2.04-.46-2.93-.06-.26-.15-.77,0-1.39.11-.45.34-.87.66-1.23l2.83-3.18c.08-.09.12-.22.09-.34l-.96-4.38c-.08-.38-.62-.43-.77-.07l-3.07,7.24c-.51,1.21-.57,2.56-.16,3.81l2.11,6.43c.12.38.66.41.83.05.04-.09.05-.19.03-.28Z"/>
      <path class="cls-25" d="M93.57,140.12c-.52-.18-1.43-.15-1.99,1.06-.63.92-.25,1.77.4,2.06.63.28,1.71.15,2.07-.86.57-1.43.08-2.06-.47-2.26Z"/>
      <path class="cls-10" d="M150.46,103.29s-.4-3.96,1.32-4.35,27.95-1.41,30.32,0,1.32,6.47,1.32,6.47c0,0-21.88-5.83-32.96-2.13Z"/>
      <path class="cls-10" d="M130.81,102.21s-1.5-4.82-2.92-4.9c0,0-14.34-2.32-16.9-3.17s-11.24,1.8-12.92,9.7c0,0,7.52-5.04,10-4.93s22.74,3.31,22.74,3.31Z"/>
      <g>
        <path class="cls-11" d="M153.26,113.74c1.83-.96,5.35-2.46,9.96-2.5,7.31-.06,12.38,3.62,13.91,4.83-4.94-.06-10.33-.38-16.09-1.12-2.71-.34-5.3-.76-7.77-1.21Z"/>
        <path d="M153.21,113.74c7.93-4.59,18.25-3.12,25.12,2.73-8.4.22-16.99-.76-25.12-2.73h0ZM153.31,113.73c8.02.88,15.77,1.67,23.82,1.93,0,0-.26.73-.26.73-6.48-5.38-16.05-6.43-23.56-2.66h0Z"/>
      </g>
      <g>
        <path class="cls-11" d="M126.16,113.17c-1.21-.99-3.9-2.89-7.76-3.34-7.38-.87-12.57,4.28-13.2,4.92,3.58-.12,7.31-.32,11.18-.62,3.38-.26,6.65-.59,9.79-.96Z"/>
        <path d="M126.16,113.17c-6.3-4.86-15.18-3.63-20.61,1.93,0,0-.37-.84-.37-.84,7.03-.37,13.93-.56,20.98-1.08h0ZM126.16,113.17c-7.31,1.13-14.82,1.82-22.24,2.15,5.72-6.49,15.6-8.3,22.24-2.15h0Z"/>
      </g>
      <path class="cls-5" d="M161.08,111.44s-.74,1.37-.19,3.51l7.3.7s.9-1.99.07-3.79c-1.01-.24-2.35-.61-3.83-.66-1.26-.05-2.43.13-3.35.25Z"/>
      <path class="cls-5" d="M120.15,110.18s.72,1.36.09,3.47l-7.31.42s-.75-2.18.16-3.95c1.01-.2,2.29-.36,3.78-.36,1.26,0,2.37.27,3.28.42Z"/>
      <path d="M126.56,135.38c-.41,1.53-.45,3.17.55,4.05.96.63,1.8,1.25,2.59,2.18,0,0-.04.2-.04.2-4.2,1.59-5.8-3.84-3.28-6.52,0,0,.17.1.17.1h0Z"/>
      <path d="M152.57,133.45c1.41,1.57,2.42,3.72,1.88,5.91-.34,1.47-2.1,2.28-3.44,1.89,0,0-.06-.19-.06-.19.51-.81.99-1.26,1.24-1.78,1.42-1.61.89-3.8.22-5.71,0,0,.17-.11.17-.11h0Z"/>
      <path class="cls-4" d="M144.7,139.32s2.31-3.36,5.22-.93c0,0-2.32,1.13-5.22.93Z"/>
      <path class="cls-4" d="M133.56,140.11s-1.06-3.52-4.24-1.35c0,0,1.91,1.42,4.24,1.35Z"/>
      <g>
        <line x1="144.98" y1="139.03" x2="144.04" y2="140.06"/>
        <path d="M145.02,139.07c.12.27.12.43.1.56-.02.14-.2.13-.31.19-.19.06-.67.37-.8.21.07-.29.23-1.03.38-1.08.1-.04.45-.07.64.11h0Z"/>
      </g>
      <g>
        <line x1="149.25" y1="137.95" x2="150.45" y2="138.68"/>
        <path d="M149.28,137.91c.24-.17.4-.2.54-.2.14,0,.17.17.25.27.1.17.5.59.37.75-.3-.02-1.06-.03-1.14-.17-.06-.09-.16-.43-.01-.65h0Z"/>
      </g>
      <g>
        <line x1="133.19" y1="139.53" x2="133.94" y2="140.7"/>
        <path d="M133.23,139.5c.29-.05.45,0,.57.05.12.06.08.23.1.35.01.2.18.74,0,.83-.26-.14-.94-.48-.94-.64-.01-.11.05-.45.28-.59h0Z"/>
      </g>
      <g>
        <line x1="130.06" y1="138.35" x2="128.79" y2="138.97"/>
        <path d="M130.08,138.39c.02.3-.04.45-.12.56-.07.12-.24.05-.36.07-.2,0-.77.11-.83-.09.17-.24.59-.88.75-.87.11,0,.45.09.56.34h0Z"/>
      </g>
      <path class="cls-19" d="M134.31,141.45s3.81,2.5,8.76.37c.13.67-5.37,5.59-8.76-.37Z"/>
      <path class="cls-24" d="M96.11,122.63c-1.64-1.38-2.7-3.17-3.81-4.97-.63-1.09-.14-2.52.72-3.4.24-.21.48-.4.81-.52l.39.1c.58.59,1.38,1.25,1.77,1.94.38.55.02,1.31.08,2.04.09,1.28.28,3.3.4,4.62,0,0-.35.19-.35.19h0Z"/>
      <path class="cls-24" d="M146.89,121.03c-1.41-1.6-2.19-3.53-3.02-5.47-.46-1.18.24-2.51,1.23-3.25.27-.17.54-.32.88-.39l.37.15c.48.67,1.18,1.45,1.45,2.18.29.6-.18,1.29-.23,2.03-.1,1.28-.22,3.3-.3,4.62,0,0-.38.13-.38.13h0Z"/>
      <path class="cls-24" d="M174.75,129.53c-4.85,2.88-12.39,4.03-17.45,1.15,5.81-1.26,11.54-2.29,17.45-1.15h0Z"/>
      <path class="cls-24" d="M102.87,131.17c5.82-1.56,11.61-.94,17.49-.09-4.84,3.24-12.45,2.62-17.49.09h0Z"/>
      <path class="cls-24" d="M130.53,121.82c-.2-1.32-.51-3.3-.73-4.57-.12-.72-.66-1.38-.42-2,.14-.53.46-1.05.78-1.57,0,0,.46-.74.46-.74l.35-.19c.35.04.62.17.91.31,1.05.64,1.87,1.9,1.53,3.12-.3.83-.52,1.63-.79,2.44-.46,1.16-.99,2.26-1.71,3.29,0,0-.39-.1-.39-.1h0Z"/>
      <path class="cls-24" d="M180.19,122.62c-.2-1.32-.51-3.3-.73-4.57-.12-.72-.66-1.38-.42-2,.14-.53.46-1.05.78-1.57,0,0,.46-.74.46-.74l.35-.19c.35.04.62.17.91.31,1.05.64,1.87,1.9,1.53,3.12-.3.83-.52,1.63-.79,2.44-.46,1.16-.99,2.26-1.71,3.29,0,0-.39-.1-.39-.1h0Z"/>
      <path class="cls-13" d="M86.45,105.42v4.31s4.1,2.5,5.32,6.59l3-.25s-.89-9.16,6.62-9.57c7.52-.41,26.55-2.67,29.42,7.57l2,1.58s1.45-3.3,0-6.29c0,0-5.49-4.49-13.11-4.86s-30.07,1.01-33.25.93Z"/>
      <path class="cls-13" d="M188.33,105.3v3.98s-3.9,2.31-5.05,6.08l-2.85-.23s.85-8.46-6.29-8.84c-7.14-.38-25.21-2.47-27.94,6.99l-1.9,1.46s-1.37-3.05,0-5.81c0,0,5.22-4.14,12.45-4.49s28.55.93,31.57.86Z"/>
      <path class="cls-24" d="M133.45,111.66s8.09-.52,10.25.25l.61-2.98s-5.59-.51-12.12-.02l1.26,2.75Z"/>
      <polygon class="cls-13" points="85.59 72.22 99.74 78.27 99.74 94.46 95.19 80.71 86.45 76.84 92.38 82.54 92.38 86.46 83.99 76.84 82.57 80.71 81.19 75.63 76.36 79.27 77.91 70.86 82.18 66.41 85.65 69.61 85.59 63.46 88.05 67.48 91.79 62.08 93.91 65.84 93.91 62.08 96.93 62.08 96.93 58.06 100.3 59.57 102.76 55.68 98.07 55.17 99.01 53.67 96.93 52.92 101.85 49.28 102.76 52.29 107.68 49.28 109.95 57.18 105.74 55.68 103.28 61.95 101.06 61.05 99.74 66.41 96.93 65.09 96.29 73.12 90.42 70.24 85.59 72.22"/>
      <polygon class="cls-13" points="93.15 90.19 96.93 96.09 93.16 97.48 93.15 102.87 87.14 93.46 90.42 93.98 88.78 89.57 92.38 93.46 93.15 90.19"/>
      <polygon class="cls-13" points="82.96 93.46 88.39 102.87 84.38 101.82 84.38 106.49 81.19 102.24 82.7 101.34 80.63 96.09 82.31 96.09 82.96 93.46"/>
      <polygon class="cls-13" points="101.6 76.84 99.14 69.73 101.06 70.61 102.63 64.84 105.2 70.24 106.38 67.48 111.91 73.63 112.65 69.73 115.68 73.12 115.68 68.73 120.5 75.88 117.9 74.96 116.88 79.49 112.65 76.26 111.91 77.39 107.29 72.87 101.6 76.84"/>
      <polygon class="cls-13" points="125.02 84.17 130.81 85.58 133.45 90.82 132.19 82.29 125.02 84.17"/>
      <polygon class="cls-13" points="125.02 74.96 129.81 76.84 126.71 78.02 130.73 79.9 130.73 78.27 133.45 78.65 132.19 71.87 125.02 74.96"/>
      <polygon class="cls-13" points="68.38 80.71 74.14 82.79 69.24 83.54 70.44 85.58 66.73 83.14 68.38 82.29 68.38 80.71"/>
      <polygon class="cls-13" points="147.08 58.45 140.58 63.11 143.83 64.84 145.11 69.37 147.08 64.84 148.13 67.9 150.42 58.45 147.08 58.45"/>
      <polygon class="cls-13" points="156.64 56.86 150.42 63.38 156.64 63.38 155.4 66.97 157.64 67.5 154.03 69.37 156.09 69.37 156.09 70.7 153.26 71.87 157.3 72.16 157.14 76.84 154.03 77.59 155.95 81.61 155.13 84.54 159.11 80.71 162.53 89.57 167.04 84.14 172.42 84.94 169.54 79.22 165.19 80.71 168.61 75.88 161.86 75.88 169.95 71.87 167.04 67.37 167.04 70.17 163.78 68.3 164.05 61.05 160.07 65.51 159.38 58.45 157.3 59.25 156.64 56.86"/>
      <polygon class="cls-13" points="148.13 72.22 152.34 75.88 147.67 74.96 152.34 82.29 147.67 79.9 147.08 83.14 136.19 69.37 145.5 75.28 143.7 72.16 148.13 72.22"/>
      <polygon class="cls-13" points="131.43 63.91 126.72 53.13 132.19 55.13 126.72 50.34 130.81 47.67 138.62 51.4 133.45 50.6 136.19 57.66 131.43 56.86 131.43 63.91"/>
      <polygon class="cls-13" points="118.76 58.45 130.73 68.44 123.84 65.77 125.02 72.22 116.57 63.91 120.36 63.91 118.76 58.45"/>
      <polygon class="cls-13" points="81.19 52.39 84.51 58.45 85.59 56.3 89.76 61.05 85.59 52.39 84.51 54.86 81.19 52.39"/>
      <polygon class="cls-13" points="171.55 66.41 172.42 72.16 168.61 75.88 175.64 74.96 178.96 82.29 174.89 81.74 178.05 88.13 178.96 85.58 185.87 97.18 187.29 91.99 193.1 99.47 189.38 87.47 188.33 89.57 185.13 81.48 183.3 73.89 182.58 80.55 177.13 73.89 171.55 66.41"/>
      <polygon class="cls-13" points="180.39 71.87 181.09 63.91 187.79 71.87 185.13 61.05 195.58 82.29 182.72 69.37 180.39 71.87"/>
      <polygon class="cls-13" points="200.3 84.81 200.3 76.84 204.13 89.57 209.75 92.92 201.12 89.57 200.3 84.81"/>
      <polygon class="cls-13" points="165.19 93.46 174.75 92.26 166.08 89.57 167.04 91.51 165.19 93.46"/>
      <polygon class="cls-13" points="152.34 52.39 158.42 46.61 159.38 52.39 168.61 51.13 166.08 56.3 169.97 56.86 163.23 58.45 164.65 54.2 156.5 54.86 156.64 50.87 152.34 52.39"/>
      <polygon class="cls-13" points="75.07 84.51 86.45 84.04 82.85 87.93 86.45 87.93 78.47 93.46 80.76 90.05 77.26 90.05 81.88 86.55 75.07 84.51"/>
      <polygon class="cls-13" points="106.42 78.28 106.42 85.58 109.95 79.49 109.95 83.14 112.65 78.05 111.06 78.69 109.03 75.53 108.09 79.18 106.93 75.88 106.42 78.28"/>
      <polygon class="cls-13" points="197.72 104.43 196.86 95.17 203.19 106.49 200.3 104.43 203.19 110.51 197.72 104.43"/>
      <polygon class="cls-13" points="194.98 112.85 189.37 99.98 192.63 112.77 188.33 109.28 193.1 117.36 193.03 114.15 196.14 117.33 194.98 112.85"/>
      <polygon class="cls-13" points="124.61 30.36 123.65 34.36 126.14 31.93 126.14 32.97 127.31 30.19 125.32 31.32 124.61 30.36"/>
      <polygon class="cls-13" points="113.99 24.95 115.44 31.16 115.23 26.71 118.22 30.19 115.41 24.8 113.99 24.95"/>
      <polygon class="cls-13" points="82.19 40.88 83.06 38.18 83.06 39.53 84.05 38.61 83.12 40.55 82.19 40.88"/>
      <polygon class="cls-13" points="168.28 35.88 171.55 40.26 169.91 34.36 168.28 35.88"/>
      <path class="cls-13" d="M183.6,42.78l-.3-7.97,1.83,6.74,1.12-1.82v3.61s-.86-1.85-2.64-.56Z"/>
      <polygon class="cls-13" points="175.64 46.61 186.24 53.3 176.53 49.96 179.74 57.82 172.8 47.67 175.13 47.67 175.64 46.61"/>
      <polygon class="cls-13" points="68.98 78.59 66.73 74.96 70.44 74.19 65.01 66.96 67.72 72.78 63.66 72.78 68.98 78.59"/>
      <polygon class="cls-20" points="189.38 58.45 196.86 78.86 197.48 71.38 203.19 77.51 196.86 62.59 196.86 67.07 189.38 58.45"/>
      <polygon class="cls-20" points="205.03 82.29 206.25 87.51 212.1 90.82 208.56 85.58 212.1 87.51 212.1 82.94 214.56 89.57 213.64 77.66 208.87 74.96 209.79 84.04 205.03 82.29"/>
      <polygon class="cls-20" points="202.56 92.92 210.56 98.23 202.56 96.22 202.56 92.92"/>
      <polygon class="cls-20" points="172.42 78.16 176.24 89.57 166.02 88.51 165.19 90.82 164.65 88.03 167.04 85.58 173.79 87.56 172.42 78.16"/>
      <polygon class="cls-20" points="160.69 96.92 171.55 95.17 164.65 97.54 160.69 96.92"/>
      <polygon class="cls-20" points="187.98 78.16 188.39 86.06 191.32 83.14 193.1 91.51 192.65 80.69 189.38 82.29 187.98 78.16"/>
      <polygon class="cls-20" points="191.43 99.98 193.97 101.82 193.97 95.58 196.14 106.49 191.43 99.98"/>
      <polygon class="cls-20" points="166.93 60.2 174.18 59.71 173.59 53.44 176.87 60.2 182.03 60.2 176.67 62.12 177.46 68.66 174.48 61.83 166.93 60.2"/>
      <polygon class="cls-20" points="110.57 44.05 113.3 60.2 107.72 58.45 106.42 63.91 109.24 61.05 110.57 68.66 111.91 62.49 113.3 66.41 113.99 62.05 117.37 61.05 110.57 44.05"/>
      <polygon class="cls-20" points="114.44 43.34 118.22 55.68 125.48 60.2 119.96 52.53 125.02 53.44 118.88 49.28 123.65 46.61 117.37 46.61 114.44 43.34"/>
      <polygon class="cls-20" points="136.76 46.61 145.5 51 138.21 53.44 144.96 53.44 139.67 60.2 152.34 50.1 136.76 46.61"/>
      <polygon class="cls-20" points="96.02 45.33 88.39 51.08 92.21 59.16 90.99 51.77 94.08 52.24 92.21 49.88 96.02 45.33"/>
      <polygon class="cls-20" points="99.74 40.88 102.41 46.61 101.79 39.53 99.74 40.88"/>
      <polygon class="cls-20" points="123.65 78.16 121.09 77.38 118.5 80.55 123.65 78.16"/>
      <polygon class="cls-20" points="124.19 86.55 129.24 87.41 128.45 90.29 124.19 86.55"/>
      <polygon class="cls-20" points="138.69 64.84 142.34 66.41 142.34 69.37 138.69 64.84"/>
      <polygon class="cls-20" points="89.12 86.19 93.25 87.67 93.91 82.81 96.29 91.88 89.12 86.19"/>
      <polygon class="cls-20" points="151.64 44.69 146.95 41.23 156.78 44.05 151.64 44.69"/>
      <polygon class="cls-13" points="178.96 98.23 184.69 103.96 183.65 99.47 187.98 103.96 182.03 93.88 182.1 98.95 178.96 98.23"/>
      <polygon class="cls-9" points="48.1 291.06 38.04 247.29 43.07 285.81 13.54 263.05 41.65 289.81 48.1 291.06"/>
      <polygon class="cls-9" points="53 291.06 60.22 275.3 60.22 292.56 53 291.06"/>
      <polygon class="cls-9" points="245.64 289.56 255.7 228.54 237.65 294.06 245.64 289.56"/>
      <polygon class="cls-9" points="253.42 289.81 255.7 259.8 265.6 247.29 253.42 289.81"/>
      <path class="cls-9" d="M261.89,300.56c4.9-21.84,9.8-43.68,14.7-65.52,1.72,6.25,3.49,15.9,2.06,27.51-2.35,19.15-12,32.32-16.76,38.01Z"/>
      <polygon class="cls-2" points="84.46 203.78 69.5 228.54 73.89 214.79 26.74 225.54 84.46 203.78"/>
      <path class="cls-2" d="M194.25,207.53s9.1-5.98,7.81-17.37l43.33,13.62-40.23-9,19.08,14.25-29.98-1.5Z"/>
      <polygon class="cls-2" points="261.89 218.95 255.7 254.8 265.11 219.64 258.99 215.43 261.89 218.95"/>
      <path class="cls-8" d="M104.48,194.15c3.56,8.09,26.37,18.89,34.76,23.23,5.78,2.84,11.63,5.53,17.46,8.25,0,0-2.07.28-2.07.28,3.47-2.85,6.85-5.93,10.2-8.97,5.87-5.75,26.41-23.73,21.09-32.22,5.49,6.62-4.87,19.43-9.13,24.71-6.21,7.44-13.18,14.07-20.57,20.33,0,0-1.14-.52-1.14-.52-12.34-5.55-46.81-22.21-50.59-35.08h0Z"/>
      <path class="cls-11" d="M108.2,187.17c-1.93,15,26.1,56.85,35.43,70.44,1.04,1.47,3.74,5.48,4.78,6.9.4.44,1.24.37,1.55-.15,0,0,.35-.58.35-.58.44-.74,1.73-2.88,2.19-3.67,6.74-11.42,13.03-23.22,18.63-35.24,5.1-11.58,14.11-31.01,10.59-43.44,2.54,7.32.56,15.3-1.27,22.57-5.93,20.17-15.88,38.9-26.26,57.09,0,0-1.44,2.47-1.44,2.47-.53.79-1.05,2.09-1.85,2.65-1.32.98-3.33.63-4.23-.74-.34-.52-1.05-1.54-1.4-2.07-11.75-17.25-23.38-35.06-31.78-54.22-.57-1.29-1.65-3.99-2.12-5.32-1.77-5.23-4.14-11.13-3.16-16.7h0Z"/>
      <path class="cls-7" d="M162.15,229.97c-.28-.07-4.54-1.02-7.75,1.96-2.89,2.68-2.53,6.31-2.48,6.72.63,4.58,4.25,7.09,6.75,6.53,2.25-.5,4.12-3.6,3.49-5.6-.56-1.78-2.94-2.16-3.38-4.56-.06-.35-.12-.93.03-1.61.52-2.25,2.93-3.27,3.35-3.44Z"/>
      <path class="cls-7" d="M156.61,232.9c-.46.2-1.28.64-1.89,1.52-.21.3-.35.6-.46.85-.14.66-.11,1.19-.05,1.53.13.85.47,1.23.63,1.29.07.03.17.05.17.05.28.08.57.09.85.04.91-.17,1.53-1.01,1.47-1.92l-.2-3.19c-.02-.25-.33-.36-.51-.18Z"/>
      <path class="cls-3" d="M149.78,267.32l-1.36,4.52,1.43.52v.92l-.97.92h-1.12l-.75-.96-3.94,2.29,3.81,1.29.87-1.29,1.12-.08.97.4v1.53l-.93,1.49,1.41,1.33s-.33,3.26-2.32.68c0,0-4.27,6.31.46,6.23,0,0,2.69.04,2.82-1.17,0,0,3.61,1.57,4.6-.76s-1.66-5.11-1.66-5.11c0,0-1.1,3.02-2.74.16l1.12-1.57-1.16-1.33-.12-1.61.46-.52,1.04-.08.87.84,3.94-2.01-4.06-1.61-.91,1.37-1.16.04-.75-.48-.12-1.01,1.16-.64-2-4.32Z"/>
      <path class="cls-10" d="M114.48,153.48c-.44.92-.97,2.28-1.19,3.99-.27,2.05,0,3.75.26,4.83.61-1.07,1.23-2.13,1.84-3.2h1.19l1.22-2.15,2.55-.53v1.51l3.29-2.45.91.94,1.91-.94,1.81.5,1.78-2.76,2.09,1.38,1.41-1.83,1.79,1,1.19-1.89,1.11.88v-7.03l-1.31.93-2.03-1.23-1.7,1.23-2.55,1.99-1.27-.49-3.18,2.25-2.37-.1-2.71,2.15-1.22-.59-2.43,1.33-2.41.27Z"/>
      <path class="cls-6" d="M141.29,156.88c-1.08-.45-2.7-.98-4.71-1.08-1.98-.1-3.43.28-4.77.61-2.1.52-5.11,1.23-9.16,2.09,0,0,32.14,2.31,39.13-2.08-3.09.29-5.56.14-7.23-.04-3.58-.39-5.36-1.15-8.44-.82-2.11.23-3.78.85-4.83,1.32Z"/>
      <path class="cls-10" d="M142.02,145.43v7.68l1.22-2.03,2.11,3.07.47-1.65.83,1.65,1.87-2.28.63,1.59.94-1.59,1.72,2.28,1.42-1.39,1.42,2.73.55-1.07,1.53,2.87,1.42-1.81.63,1.81,1.83-1.81.43,1.35,1.6-1.35.57,2.27.86-1.33,1.78.87,1.02-.87,1.17,3.43s1.77-4.88.42-7.21-1.59-1.1-1.59-1.1l-.66,1.1-.63-2.07-.48,1.3-1.89-.8-3.14.8-1.26-1.65-.66,1.22-2.64-3.06-.48,1.05-3.2-2.01-1.72.61-1.39-2.6-1.26,1.23-1.23-1.23-3.14.85-1.04-.85Z"/>
      <path class="cls-10" d="M118.21,177.43s-.25,2.26,0,3.5.86-.49.86-.49v3.57l.92-.8.55,2.37h1.43l.69,1.68,1.31,2.07h1.02l1.02,2.72.47-1.89,1.06,2.82,1.22-.93,1.22,2.12,1.32-.59.85,1.38,1.49-.59,1.22,1.38,1.12-.4,1.66,1.19,2.18-.79.95.79,1.45-1.19,1.2,1.19,1.09-.59,2.27.59,2.14-1.78,1.32,1.09.81-1.48,2.95.99.64-1.09,1.23.49.99-2.27,1.02.89,1.32-2.17,1.12.84.92-4.01,1.12.3.86-1.8,1.03,1.3.97-3.14h1.12v-3.28h1.78v-3.37l1.22-2.68-1.08-4.63-1.07,4.63-.96-1.46-.82,4.93-1.16-1.77-1.03,2.67-1.43-1.69-.54,1.79-1.73-1.79-.97,3.37-1.17-1.78-.92,4.36-1.81-2.58-.54,3.06-1.53-3.06-1.22,3.29-.92-.71-.92,1.67-1.43-3.66-1.63,4.52-1.12-3.24-.85,3.24-1.44-2.54v2.54l-1.89-2.54-1.36,3.54-1.14-4.25-1.04,3.75-1.15-2.35-1.12,1.84-.41-2.54-1.73,2.54-1.1-3.57-.73,2.3-.81-2.96-.92,2.4-1.02-3.49-1.02,3.26-1.16-2.37-.65,1.89-1.24-3.96-.61,1.88-1.31-3.05-.69,1.66-.65-3.85-.78.93-1.06-4.39-.31,3.46-1.78-5.79-.82,2.52-3.18-2.97,2.92,5.04v2.15l1.2-.67-.21,1.7.9-1.24Z"/>
      <path class="cls-24" d="M183.78,107.92c-1.38,0-2.52.53-2.52,1.17.2.67,1.48,1.13,2.79,1.06,1.13-.05,2.09-.49,2.25-1.06,0-.64-1.14-1.17-2.52-1.17Z"/>
      <path class="cls-24" d="M90.65,107.92c-1.38,0-2.52.53-2.52,1.17.2.67,1.48,1.13,2.79,1.06,1.13-.05,2.09-.49,2.25-1.06,0-.64-1.14-1.17-2.52-1.17Z"/>
    </g>
  </g>
</svg>