<?xml version="1.0" encoding="UTF-8"?>
<svg id="Layer_2" data-name="Layer 2" xmlns="http://www.w3.org/2000/svg" viewBox="0 0 1117.09 1117.09">
  <path d="M656.39,443.88l87.14.14-86.87,6.86c-4.8.21-5.09-6.83-.27-6.99h0Z"/>
  <path d="M261.58,597.52c10.58-42.31,24.58-96.09,35.7-138.45,0,0,12.22-46.06,12.22-46.06.39-1.46,1.89-2.33,3.35-1.94,1.21.32,2.02,1.41,2.04,2.6,1.28,34.95,2.47,73.79,3.6,108.95.12,4.13.34,11.82.46,15.89,0,0,.02.57.02.57,0,.15.01.03,0,.02-.19-1.26-1.78-1.36-2.21-.34,14.26-34.88,32.3-78.5,46.77-113.37,4.63-11.19,9.28-22.38,13.97-33.54l.02-.04c1.5-3.48,6.86-2.03,6.2,1.86,0,0-12.51,66.72-12.51,66.72-7.27,37.78-18.29,96-25.82,133.29-4.42,22.19-8.79,44.4-13.39,66.56,3.49-22.36,7.21-44.68,10.87-67.01,10.04-61.32,23.59-139.27,34.44-200.71,0,0,6.22,1.82,6.22,1.82-18.62,45.76-39.76,97.11-58.73,142.83-.78,1.59-1.78,5.33-3.39,6.44-3.54,2.97-9.26.34-9.22-4.33,0-.3-.07-2.47-.07-2.84-.97-39.89-1.97-82.83-2.7-122.61,0,0,5.38.65,5.38.65l-13.06,45.83c-12.09,42.15-27.61,95.4-40.15,137.23h0Z"/>
  <path d="M442.79,576.32c-17.41,13.37-56.9,31.25-63.68-1.71-3.74-18.19,2.55-37.14,13.57-51.64,3.85-5.06,8.41-9.58,13.29-13.63,4.07-3.01,8.44-4.86,13.5-5.8,4.38-.77,9.9.09,13.06,3.57,2.4,3.45,3.55,7.73,3.29,11.85-.3,1.64-.67,3.46-1.33,5.52-.79,2.66-2.68,5.2-4.71,7.15-1.71,1.76-3.59,3.65-5.38,5.31-9.7,9.23-21.2,16.6-33.44,21.89-6.06,2.69-12.29,4.85-18.44,7.3,11.47-6.33,23.42-11.98,33.79-19.98,7.35-5.65,14.1-12.16,20.12-19.21,2.37-2.55,2.69-5.31,3.38-8.9,0,0-.08.58-.08.58.07-2.83-.79-5.59-2.44-7.81l.63.66c-4.62-3.42-11.29-.56-15.87,1.98-1.25.64-2.58,1.95-3.6,2.82-8.66,7.72-15.84,17.3-20.01,28.17-4.05,10.62-5.86,22.64-2.37,33.62,6.73,21.95,43.34,5.7,56.74-1.75h0Z"/>
  <path d="M441.85,576.37c-17.05,11.41-55.68,29.28-61.77-2.1-4.55-23.04,6.84-46.76,23.87-61.97,6.19-5.97,18.82-11.19,26.43-5.07,2.79,3.22,4.09,7.8,3.83,12.03-.58,3.75-1.73,8.41-4.7,11.34-10.7,12.41-23.91,22.79-38.58,30.14-5.8,3.04-12.08,5.71-17.83,8.6-4.13,2-7.27-4-3.2-6.23,11.98-5.42,24.11-10.2,34.9-17.7,7.87-5.41,15.2-11.97,21.63-19.09,1.96-2.3,2.34-4.93,3.04-8.08,0,0-.06.46-.06.46.17-2.95-.62-5.93-2.31-8.37,0,0,.45.47.45.47-5.22-4.34-14.15-.67-19.11,2.75-17.74,14.13-30.29,37.26-26.4,60.32,1.13,6.5,4.34,13.32,11.09,15.45,15.46,4.8,35.57-4.98,48.72-12.96h0Z"/>
  <path d="M485.89,527.95c4.88-2.45,10.34-7.23,8.19-13.22,0,0-.13-.38-.13-.38-.05-.1-.07-.16-.12-.22-.38-.6-1.3-.46-1.8-.04-10.61,8.13-20.24,18.31-25.03,30.93-3.75,9.89-4.32,22.37,2.05,31.13,6.15,7.61,18.03,9.72,27.2,6.63,6.54-2.1,13.28-5.79,16.92-11.61,7.02-11.62,1.8-26.85-5.97-36.98-5.56-7.42-13.19-13.28-21.68-17.68,9.11,2.93,17.65,8.18,24.36,15.44,10.1,10.95,16.53,28.47,8.63,42.44-4.81,8.21-13.26,12.87-22,15.49-11.52,3.26-25.39.18-32.95-9.6-9.3-13.27-6.41-31.1,1.64-44.06,6.3-10.3,15.35-18.1,25.36-24.26,2.12-1.39,5.22-.44,5.5,2.3,1.48,6.9-4.33,11.66-10.19,13.71h0Z"/>
  <path d="M484.69,528.02c4.88-2.45,10.34-7.23,8.19-13.22,0,0-.13-.38-.13-.38-.05-.1-.07-.16-.12-.22-.38-.6-1.3-.46-1.8-.04-10.61,8.13-20.24,18.31-25.03,30.93-3.75,9.89-4.32,22.37,2.05,31.13,6.15,7.61,18.03,9.72,27.2,6.63,6.54-2.1,13.28-5.79,16.92-11.61,7.02-11.62,1.8-26.85-5.97-36.98-5.56-7.42-13.19-13.28-21.68-17.68,9.11,2.93,17.65,8.18,24.36,15.44,10.1,10.95,16.53,28.47,8.63,42.44-4.81,8.21-13.26,12.87-22,15.49-11.52,3.26-25.39.18-32.95-9.6-9.3-13.27-6.41-31.1,1.64-44.06,6.3-10.3,15.35-18.1,25.36-24.26,2.12-1.39,5.22-.44,5.5,2.3,1.48,6.9-4.33,11.66-10.19,13.71h0Z"/>
  <path d="M640.44,439.6c5.21-18.62,7.53-38,7.03-57.31.09-.74-.67-1.41-1.36-1.19-.24.04-.45.28-.64.48-41.63,41.14-79.7,85.84-113.62,133.54,0,0-4.3-5.03-4.3-5.03,8.16-4.09,16.57-7.69,25.17-10.73,17.21-6.1,35.23-9.86,53.42-11.39,9.09-.75,18.24-.96,27.35-.51,1.83.06,3.27,1.62,3.18,3.45-.04.73-.31,1.39-.74,1.92-16.22,19.94-49.05,60.02-65.45,79.8-21.97,26.48-44.02,52.9-66.43,79.01,29.83-39.66,63.87-83.22,94.71-122.49,0,0,32.03-40.46,32.03-40.46l2.44,5.37c-26.52-.97-53.16,3.1-78.2,11.87-8.35,2.91-16.52,6.35-24.44,10.28-3.12,1.55-6.36-2.18-4.29-5.04,8.58-11.97,17.45-23.73,26.67-35.21,27.54-34.5,57.73-66.89,90.28-96.7,0,0-.11.11-.11.11.57-.65,1.4-1.17,2.31-1.34,3.16-.64,5.38,2.43,4.95,4.49-.06,4.87-.31,9.73-.75,14.57-1.33,14.49-4.43,28.81-9.21,42.54h0Z"/>
  <path d="M637.87,437.34c5.78-18.05,8.73-37.03,8.69-56.03,0,0,.03-.49.03-.49-.03.34.23.63.6.54-41.34,39.1-81.75,84.47-115.73,131.69,0,0-2.5-2.92-2.5-2.92,32.49-16.03,69.06-23.65,105.22-21.92.72.02,1.29.64,1.25,1.36.31,1.17-130.4,159.89-130.61,160.83,0,0,128.29-161.7,128.29-161.7l.96,2.12c-35.66-1.26-71.57,6.68-103.34,22.86-1.75.9-3.76-1.22-2.5-2.92,33.55-47.71,73.26-93.93,114.56-133.6,1.48-1.86,4.54-2.55,6.7-1.47,2.29,1.01,3.69,3.58,3.3,6.06,0,0,.03-.49.03-.49.29,19.64-2.51,39.35-8.28,58.17-1.49,4.42-7.98,2.36-6.68-2.09h0Z"/>
  <path d="M724.62,388.84s-112.47,269.59-112.47,269.59l105.98-272.2c1.81-4.28,8.16-1.79,6.49,2.62h0Z"/>
  <path d="M807.64,579.72c-10.99-28.15-22.44-56.11-35.71-83.25-1.36-2.65,1.33-5.79,4.14-4.87,15.06,4.58,30.2,8.84,45.39,13.01,15.07,4.09,30.75,8.04,45.81,12.09-23.74-1.79-47.22-6.18-70.29-11.97-7.69-1.97-15.33-4.11-22.92-6.43l4.16-4.86c13.15,27.46,23.57,56.38,29.42,86.29h0Z"/>
  <path d="M804.87,580.76c-7.86-29.1-18.18-57.57-30.84-85.03-.67-1.34.76-2.94,2.16-2.43,29.98,9.76,60.62,17.6,91.68,23.45-31.25-4.68-62.25-11.37-92.72-20.04,0,0,2.13-2.49,2.13-2.49,13.76,27.12,25.26,55.44,34.32,84.57,1.26,4.51-5.33,6.49-6.72,1.95h0Z"/>
  <path d="M679.93,613.5c14.59-35.14,30.84-70.62,46.99-105.08,0,0,3.49-7.44,3.49-7.44l3.55-7.41c.75-1.56,2.61-2.22,4.17-1.47.9.43,1.51,1.26,1.71,2.17,1.45,6.76,2.77,13.54,4.1,20.33,2.29,11.77,5.26,28.85,7.44,40.82.91,5.08,2.86,15.32,3.85,20.38.27,1.02-.98,1.89-1.84,1.28-5.31-3.52-10.7-6.91-16.05-10.37-10.44-6.57-21.9-13.73-32.53-20.07,0,0-16.39-9.84-16.39-9.84-.93-.56-1.23-1.77-.67-2.7.28-.47.72-.77,1.22-.9,8.94-2.68,17.87-5.41,26.82-8.04,15.54-4.66,38.01-10.86,53.83-15.37,8.98-2.51,17.94-5.12,26.95-7.56,3.88-1.03,6.44,4.04,3.27,6.53-13.49,10.6-30.6,23.75-44.25,34.01-24.77,18.67-49.74,37.09-75.19,54.83-.16.11-.38.07-.49-.09-.1-.15-.07-.35.06-.46,9.36-8.16,18.83-16.19,28.34-24.16,28.28-23.59,57.79-47.42,86.95-70,0,0,3.27,6.53,3.27,6.53-9,2.44-18.05,4.72-27.08,7.09-26.27,6.9-55.15,14.3-81.43,20.53,0,0,.54-3.6.54-3.6l15.89,10.63c10.29,6.91,21.61,14.23,32.03,20.86,5.41,3.36,10.78,6.79,16.23,10.09,0,0-1.84,1.28-1.84,1.28-1.16-5.05-3.54-15.16-4.78-20.18-4.81-19.53-10.21-40.98-14.36-60.55,0,0,5.88.69,5.88.69,0,0-3.51,7.43-3.51,7.43-10.48,21.75-21.78,44.82-32.69,66.37-7.23,14.18-15.26,29.83-22.84,43.75-.09.17-.31.23-.48.14-.16-.09-.22-.28-.16-.44h0Z"/>
</svg>