<?xml version="1.0" encoding="UTF-8"?>
<svg id="Layer_1" data-name="Layer 1" xmlns="http://www.w3.org/2000/svg" xmlns:xlink="http://www.w3.org/1999/xlink" viewBox="0 0 792 663">
  <defs>
    <style>
      .cls-1, .cls-2, .cls-3, .cls-4, .cls-5, .cls-6, .cls-7 {
        fill: none;
      }

      .cls-8 {
        fill: #dfdff4;
      }

      .cls-9 {
        fill: #d6d6d6;
      }

      .cls-10 {
        fill: #7c7c7c;
      }

      .cls-11 {
        fill: #7fcbdd;
      }

      .cls-12 {
        fill: #f4bf19;
      }

      .cls-2, .cls-3, .cls-4 {
        stroke: #fff;
      }

      .cls-2, .cls-3, .cls-4, .cls-5, .cls-6, .cls-7 {
        stroke-miterlimit: 10;
      }

      .cls-13 {
        fill: #efefef;
      }

      .cls-14 {
        fill: #8c6b4c;
      }

      .cls-15 {
        font-family: MyriadPro-Regular, 'Myriad Pro';
        font-size: 12px;
      }

      .cls-16 {
        fill: url(#linear-gradient);
      }

      .cls-17 {
        fill: #c66a6a;
      }

      .cls-18 {
        fill: #eddd4c;
      }

      .cls-19 {
        fill: #e5e5e5;
      }

      .cls-20 {
        fill: #ab3837;
      }

      .cls-21 {
        fill: #c9c3c3;
      }

      .cls-22 {
        clip-path: url(#clippath-1);
      }

      .cls-23 {
        clip-path: url(#clippath-3);
      }

      .cls-24 {
        clip-path: url(#clippath-2);
      }

      .cls-25 {
        fill: #909295;
      }

      .cls-26 {
        fill: #f96c1e;
      }

      .cls-3, .cls-7 {
        stroke-width: .25px;
      }

      .cls-27 {
        fill: #84bc8c;
      }

      .cls-4 {
        stroke-width: .15px;
      }

      .cls-28 {
        fill: #dbb35d;
      }

      .cls-29 {
        fill: #6b6361;
      }

      .cls-30 {
        fill: #e55c41;
      }

      .cls-31 {
        opacity: .58;
      }

      .cls-32 {
        fill: #724714;
      }

      .cls-33 {
        fill: #afafdd;
      }

      .cls-34 {
        fill: #c45f5f;
      }

      .cls-5 {
        stroke-width: .5px;
      }

      .cls-5, .cls-7 {
        stroke: #1a1818;
      }

      .cls-35 {
        fill: #d8411e;
      }

      .cls-36 {
        fill: #efe45e;
      }

      .cls-37 {
        fill: #68cdeb;
      }

      .cls-6 {
        stroke: #4c4c4c;
      }

      .cls-38 {
        fill: #3f352d;
      }

      .cls-39 {
        fill: #ededed;
      }

      .cls-40 {
        fill: #3a3433;
      }

      .cls-41 {
        fill: #4d87db;
      }

      .cls-42 {
        clip-path: url(#clippath);
      }
    </style>
    <clipPath id="clippath">
      <rect class="cls-1" width="792" height="612"/>
    </clipPath>
    <clipPath id="clippath-1">
      <rect class="cls-1" width="792" height="612"/>
    </clipPath>
    <linearGradient id="linear-gradient" x1="0" y1="611.77" x2="1" y2="611.77" gradientTransform="translate(174.61 -84.45) rotate(168.75) scale(.86 -.86)" gradientUnits="userSpaceOnUse">
      <stop offset="0" stop-color="#354296"/>
      <stop offset=".14" stop-color="#354296"/>
      <stop offset=".54" stop-color="#2f499b"/>
      <stop offset="1" stop-color="#3c4c9d"/>
      <stop offset="1" stop-color="#3c4c9d"/>
    </linearGradient>
    <clipPath id="clippath-2">
      <rect class="cls-1" x="429.87" y="308.03" width="40.05" height="50.7"/>
    </clipPath>
    <clipPath id="clippath-3">
      <rect class="cls-1" x="462.68" y="324.14" width="63.62" height="41.76"/>
    </clipPath>
  </defs>
  <g class="cls-42">
    <g class="cls-22">
      <path class="cls-27" d="M128.92,540.03l9.36,21.41s22.39-7.41,33.32-21.06c0,0-14.17-2.34-42.67-.35"/>
      <path class="cls-19" d="M453.72,358.73s.79-3.16,10.23-.93c0,0,3.56-2.36,4.78.07l53.54-10.81s7.73-5.87,14.73-3.1c0,0,5.23-6.9,9.01-4.79,0,0,4.11-5.2,7.12-3.49,0,0,4.22-6.08,6.56-3.18,0,0-20.06,36.76-58.42,38.47-38.36,1.71-47.54-12.23-47.54-12.23"/>
      <path class="cls-2" d="M453.72,358.73s.79-3.16,10.23-.93c0,0,3.56-2.36,4.78.07l53.54-10.81s7.73-5.87,14.73-3.1c0,0,5.23-6.9,9.01-4.79,0,0,4.11-5.2,7.12-3.49,0,0,4.22-6.08,6.56-3.18,0,0-20.06,36.76-58.42,38.47-38.36,1.71-47.54-12.23-47.54-12.23Z"/>
      <path class="cls-19" d="M69.83,356.01s9.3-10.57,20.76-3.16c0,0,3.37-4.46,7.31,0,0,0,46.82-14.7,48.75-9.86,0,0,9.71-1.78,11.04,3.59,0,0,9.97-8.7,21.77-4.57,0,0-23.58,32.21-58.47,31.87-34.89-.33-51.17-17.88-51.17-17.88"/>
      <path class="cls-2" d="M69.83,356.01s9.3-10.57,20.76-3.16c0,0,3.37-4.46,7.31,0,0,0,46.82-14.7,48.75-9.86,0,0,9.71-1.78,11.04,3.59,0,0,9.97-8.7,21.77-4.57,0,0-23.58,32.21-58.47,31.87-34.89-.33-51.17-17.88-51.17-17.88Z"/>
      <path class="cls-19" d="M69.84,168.67s2.37-7.05,7.25-.64c0,0,1-4.17,5-1,0,0,5.87-5.13,16.12-2.29,10.25,2.84,50.43-9.14,50.43-9.14,0,0,4.43-3.58,5.43.2,0,0,1.25-7.37,13.25-4.67,0,0,4.12,1.33,9.75-2.42,5.62-3.75,6.75,0,6.75,0,0,0-19.49,35.24-56.98,37.99-37.49,2.75-56.98-18.03-56.98-18.03"/>
      <path class="cls-2" d="M69.84,168.67s2.37-7.05,7.25-.64c0,0,1-4.17,5-1,0,0,5.87-5.13,16.12-2.29,10.25,2.84,50.43-9.14,50.43-9.14,0,0,4.43-3.58,5.43.2,0,0,1.25-7.37,13.25-4.67,0,0,4.12,1.33,9.75-2.42,5.62-3.75,6.75,0,6.75,0,0,0-19.49,35.24-56.98,37.99-37.49,2.75-56.98-18.03-56.98-18.03Z"/>
      <polygon class="cls-9" points="451.4 513.74 444.14 510.86 447.77 514.96 444.92 514.44 447.28 516.1 445.01 519.41 450.68 517.75 450.68 520.19 452.36 518.01 454.25 523.42 456.7 518.01 459.14 519.85 458.78 517.49 466.99 517.67 462.63 514.96 470.91 505.37 461.53 511.04 460.18 509.64 451.4 513.74"/>
      <polygon class="cls-9" points="523.87 501.33 523.6 498.68 523.11 500 521.79 498.95 522.38 500.54 520.89 499.37 522.16 501.71 519.34 500.19 521.6 502.56 517.53 501.66 520.7 504.05 519.34 504.64 523.44 504.37 523.39 506.02 525.25 504.48 525.73 505.7 526.17 504.1 528.79 505.28 527.75 503.57 530.56 503.57 528.55 502.61 530.1 501.33 527.91 501.92 528.5 500.31 526.81 501.66 523.87 501.33"/>
      <polygon class="cls-9" points="503.23 529.17 503.23 523.18 503.9 524.77 509.6 521.06 506.42 525.31 510.66 527.12 505.51 529.17 507.63 529.85 502.63 530.98 503.9 533.79 497.55 531.82 490.34 535.6 490.57 533.18 487.7 533.26 488.76 531.89 480.88 530.44 484.75 527.88 482.5 527.12 484.22 526.59 479.67 522.04 486.64 523.64 487.02 521.82 487.56 530.67 503.23 529.17"/>
      <path class="cls-29" d="M644.66,551.98s1.89-3.31,7.05-.41c0,0,.13-1.76,2.77-.06,0,0,1.26-.44,2.01-.06,0,0-.44-1.95,1.2.06,0,0,1.89-.49,3.02.48l.32-.8.31.8s2.14-.78,2.2,0c0,0,5.98-1.42,6.29-.48.31.94,23.41-1.92,23.41-1.92,0,0,3.52-1.23,3.27,0,0,0,4.03-1.7,4.09-.55,0,0,.19-1.26.82-.4.63.86.38,1.52.38,1.52,0,0,.57-1.92,1.64-1.49,1.07.44.38,1.49.38,1.49,0,0,.76-1.85,1.7-1.82.94.03,1.39.78,1.39.78,0,0-.13-1.37.94-.78,1.07.59.57,2.23.57,2.23,0,0,1.45-2.14,2.96-1.95l1.51.19s1.13-.69,2.08.44c0,0,1.01-2.45,1.7.19,0,0,3.65-1.07,3.65,1.2,0,0,2.26-.62.57,1.36s-20.24,11.51-37.78,11.89c-17.54.38-38.06-7.03-38.41-11.89"/>
      <path class="cls-40" d="M667.22,551.98s2.04.65,1.32,1.18c0,0,1.84-.79,1.71.4,0,0,4.87-1.25,3.82,0-1.05,1.25,1.71,0,1.71,0,0,0,.07.99,2.5-.06,2.44-1.05,2.24,0,2.24,0,0,0,.4,1.31,1.78.62,0,0,1.98,1.22,1.91-.62,0,0,.59-1.96,2.83-1.51,0,0,1.71-1.37,3.75,0l2.11.65s-.07-1.2,1.38-1.26c0,0,.86-1.31,1.58-.78,0,0-1.14-.81-2.15.16-1.01.96-3.71-1.14-3.71-1.14l-22.78,2.38Z"/>
      <path class="cls-32" d="M667.65,495.23s-1.34,4.33,1.24,5.87c2.57,1.55,5.15,3.24,5.15,3.24,0,0,1.34,1.19,1.34,3.56s.72,8.34.72,8.34c0,0,.62,1.34.82-1.65.21-2.99.21-9.06-1.44-10.71-1.65-1.65-6.39-4.74-6.39-5.56s.1-2.35.1-2.35l7.29-2.21s3.42,4.25,3.73,6.93c.31,2.68,1.65-.93,1.65-.93,0,0,.06-2.71-1.13-1.96,0,0-1.36-5.05-3-5.36-1.64-.31,16.7-1.03,16.7-1.03,0,0-9.34,5.15-7.35,8.24,0,0-4.5,11.85-2.64,15.04,0,0,.41,1.03,1.24-1.75.82-2.78,4.02-13.49,4.02-13.49,0,0-1.16-.05.41-1.54,1.57-1.5,3.6-2.47,3.6-2.47l3.3,2.16-2.38,2.21-2.56.46s-3.81,15.55-3.09,21.74c0,0,1.24,1.65.1,4.94,0,0,1.13,3.81.62,5.67,0,0,2.47,15.25,4.02,18.13l-25.55,1.24s.41-.93,1.03-1.03c0,0,.1-4.02,1.03-4.12,0,0,.19-5.25,1.13-4.95,0,0-.1-4.22.62-4.12l1.1-6.08s-.75-3.81,0-3.71c0,0,.13-5.77.65-5.15,0,0-1.5-6.08-.65-5.36,0,0-.18-6.8-1.31-7.73-1.13-.93-1.24-2.99-1.24-2.99,0,0-.82-2.08-1.03-2.43,0,0-.93-.85-1.65-2.56,0,0-3.06-2.12-5.66-2.24-2.59-.12,5.45-4.31,5.45-4.31"/>
      <path class="cls-34" d="M95.75,356.01v-10.96l2.15-.7,10.23-3.35,9.19-12.66,4.65-2.68,24.05-1.19,4.7,8.48,1.4,13.18-.98.07s-.14,3.36-1.75,3.15l-2.74.07-2.94,1.96s-.35,4.04-2.59,4.61c-2.24.57-4.14.27-4.63,0l-.98.64s-27.16,3.42-39.75-.64"/>
      <path class="cls-5" d="M95.75,356.01v-10.96l2.15-.7,10.23-3.35,9.19-12.66,4.65-2.68,24.05-1.19,4.7,8.48,1.4,13.18-.98.07s-.14,3.36-1.75,3.15l-2.74.07-2.94,1.96s-.35,4.04-2.59,4.61c-2.24.57-4.14.27-4.63,0l-.98.64s-27.16,3.42-39.75-.64Z"/>
      <polyline class="cls-5" points="95.75 348.87 104.98 349.63 103.93 345.18 95.75 345.05"/>
      <polygon class="cls-5" points="117.27 349.63 118.73 345.53 129.71 345.53 127 350.12 117.27 349.63"/>
      <path class="cls-5" d="M100.36,357.09s-.24-5.77,4.99-5.31l12.62.23s2.85,1.3,3.02,5.82"/>
      <line class="cls-5" x1="101.84" y1="357.31" x2="101.84" y2="352.85"/>
      <line class="cls-5" x1="104.66" y1="357.63" x2="104.66" y2="351.75"/>
      <line class="cls-5" x1="107.33" y1="357.82" x2="107.33" y2="351.8"/>
      <line class="cls-5" x1="109.62" y1="357.82" x2="109.62" y2="351.75"/>
      <line class="cls-5" x1="112.09" y1="357.98" x2="112.09" y2="351.89"/>
      <line class="cls-5" x1="114.38" y1="358.11" x2="114.38" y2="352.05"/>
      <line class="cls-5" x1="119.19" y1="358.13" x2="119.19" y2="352.85"/>
      <line class="cls-5" x1="116.8" y1="358.07" x2="116.8" y2="352.09"/>
      <path class="cls-5" d="M143.71,351.39s.8-5.17-4.13-5.17-4.39,8.16-3.09,9.78"/>
      <line class="cls-34" x1="147.02" y1="326.28" x2="134.74" y2="327.84"/>
      <line class="cls-5" x1="147.02" y1="326.28" x2="134.74" y2="327.84"/>
      <line class="cls-34" x1="141.7" y1="327.06" x2="145.34" y2="350.3"/>
      <line class="cls-5" x1="141.7" y1="327.06" x2="145.34" y2="350.3"/>
      <path class="cls-5" d="M132.28,337.99h4.59s.27-4.2,2.3-3.14c2.04,1.06,3.59,3.01,2.52,3.83-1.06.82-3.01.91-3.01.91h-3.96l3.22,6.99"/>
      <line class="cls-34" x1="150.72" y1="332.95" x2="140.19" y2="335.48"/>
      <line class="cls-5" x1="150.72" y1="332.95" x2="140.19" y2="335.48"/>
      <path class="cls-5" d="M146.65,349.43s.11-9.3,2.71-8.8c2.6.5,2.76,5.5,2.76,5.5"/>
      <path class="cls-34" d="M117.32,328.34l17.42-.51-2.46,10.15s-19.56,1.81-22.16.27c0,0-5.12-.86-2.79-3.15,2.33-2.29,4.44.88,4.44.88l5.55-7.65Z"/>
      <path class="cls-5" d="M117.32,328.34l17.42-.51-2.46,10.15s-19.56,1.81-22.16.27c0,0-5.12-.86-2.79-3.15,2.33-2.29,4.44.88,4.44.88l5.55-7.65Z"/>
      <path class="cls-5" d="M149.39,349.36s-3.38-4.92-.03-8.73"/>
      <path class="cls-5" d="M140.19,346.22s-4.51,4.32-.52,9.79"/>
      <rect class="cls-7" x="246.35" y="301.71" width="1.16" height="1.36"/>
      <rect class="cls-7" x="248.27" y="301.71" width=".89" height="1.36"/>
      <rect class="cls-7" x="249.93" y="301.71" width="1.06" height="1.36"/>
      <rect class="cls-7" x="251.76" y="301.71" width="1.08" height="1.36"/>
      <rect class="cls-7" x="253.62" y="301.71" width="1.06" height="1.36"/>
      <rect class="cls-7" x="255.44" y="301.71" width=".89" height="1.36"/>
      <rect class="cls-7" x="257.11" y="301.71" width="1.06" height="1.36"/>
      <rect class="cls-7" x="258.95" y="301.71" width="1.07" height="1.36"/>
      <rect class="cls-7" x="260.79" y="301.71" width="1.06" height="1.36"/>
      <line class="cls-7" x1="247.46" y1="304.9" x2="260.79" y2="304.9"/>
      <path class="cls-13" d="M261.88,299.55v1.25h-1.06v-1.25h-.77v1.25h-1.07v-1.25h-.78v1.25h-1.06v-1.25h-.77v1.25h-.89v-1.25h-.77v1.25h-1.06v-1.25h-.77v1.25h-1.08v-1.25h-.77v1.25h-1.06v-1.25h-.77v1.25h-.89v-1.25h-.77v1.25h-1.16v-1.25h-.78v5.31l1.89-.05v19h13.33v-19h1.83v-5.26h-.77ZM247.54,302.98h-1.16v-1.36h1.16v1.36ZM249.2,302.98h-.89v-1.36h.89v1.36ZM251.03,302.98h-1.06v-1.36h1.06v1.36ZM252.88,302.98h-1.08v-1.36h1.08v1.36ZM254.71,302.98h-1.06v-1.36h1.06v1.36ZM256.37,302.98h-.89v-1.36h.89v1.36ZM258.2,302.98h-1.06v-1.36h1.06v1.36ZM260.05,302.98h-1.07v-1.36h1.07v1.36ZM261.88,302.98h-1.06v-1.36h1.06v1.36Z"/>
      <path class="cls-3" d="M261.88,299.55v1.25h-1.06v-1.25h-.77v1.25h-1.07v-1.25h-.78v1.25h-1.06v-1.25h-.77v1.25h-.89v-1.25h-.77v1.25h-1.06v-1.25h-.77v1.25h-1.08v-1.25h-.77v1.25h-1.06v-1.25h-.77v1.25h-.89v-1.25h-.77v1.25h-1.16v-1.25h-.78v5.31l1.89-.05v19h13.33v-19h1.83v-5.26h-.77ZM247.54,302.98h-1.16v-1.36h1.16v1.36ZM249.2,302.98h-.89v-1.36h.89v1.36ZM251.03,302.98h-1.06v-1.36h1.06v1.36ZM252.88,302.98h-1.08v-1.36h1.08v1.36ZM254.71,302.98h-1.06v-1.36h1.06v1.36ZM256.37,302.98h-.89v-1.36h.89v1.36ZM258.2,302.98h-1.06v-1.36h1.06v1.36ZM260.05,302.98h-1.07v-1.36h1.07v1.36ZM261.88,302.98h-1.06v-1.36h1.06v1.36Z"/>
      <polygon class="cls-30" points="256.24 304.9 247.46 312.29 247.46 307.43 250.47 304.9 256.24 304.9"/>
      <polygon class="cls-4" points="256.24 304.9 247.46 312.29 247.46 307.43 250.47 304.9 256.24 304.9"/>
      <polygon class="cls-30" points="260.79 306.65 247.46 317.85 247.46 323.9 260.89 312.61 260.79 306.65"/>
      <polygon class="cls-4" points="260.79 306.65 247.46 317.85 247.46 323.9 260.89 312.61 260.79 306.65"/>
      <polygon class="cls-30" points="260.89 319.06 255.13 323.9 260.89 323.9 260.89 319.06"/>
      <polygon class="cls-4" points="260.89 319.06 255.13 323.9 260.89 323.9 260.89 319.06"/>
      <line class="cls-6" x1="254.39" y1="295.33" x2="254.39" y2="292.56"/>
      <path class="cls-30" d="M255.87,291.35c0,.82-.66,1.48-1.48,1.48s-1.48-.66-1.48-1.48.66-1.48,1.48-1.48,1.48.66,1.48,1.48"/>
      <path class="cls-4" d="M255.87,291.35c0,.82-.66,1.48-1.48,1.48s-1.48-.66-1.48-1.48.66-1.48,1.48-1.48,1.48.66,1.48,1.48Z"/>
      <line class="cls-3" x1="260.82" y1="304.81" x2="247.49" y2="304.81"/>
      <path class="cls-25" d="M310.45,277.93s1.7,4.32.79,5.89c0,0,14.93,9.96,43.49,0,0,0-11,9.56-22.14,8.12,0,0,22.01,5.37,40.74-5.9,0,0-21.49,19.65-51.36,5.24,0,0,17.03,11.14,11.79,12.18,0,0,23.25,3.14,45.33-10.22,0,0-.07-9.83-4-15.33,0,0-34.59-9.43-64.65,0"/>
      <path class="cls-25" d="M337.5,306.89s22.53.65,41.6-10.61c0,0,.59,8.4-1.77,10.62,0,0-22.53,8.12-39.83,0"/>
      <path class="cls-25" d="M341.96,311.34s16.64,5.5,29.48,0c0,0,.79,2.1-.65,3.14,0,0-4.32,1.44-13.36,1.7,0,0,3.28,2.49,8.65,1.31,0,0-4.19,3.01-10.87,4.19,0,0-6.16-3.93-12.05-3.27,0,0,3.28-2.62-1.18-7.08"/>
      <path class="cls-25" d="M341.43,320.12s10.48-.52,12.58,3.27c0,0-10.74-.65-16.51,5.11,0,0,3.27-5.24,3.93-8.39"/>
      <path class="cls-6" d="M247.87,299.64v-2.57c0-.96.78-1.75,1.75-1.75h9.09c.82,0,1.49.64,1.53,1.45l.16,2.86"/>
      <rect class="cls-7" x="239.82" y="497.82" width=".76" height=".89"/>
      <rect class="cls-7" x="241.08" y="497.82" width=".58" height=".89"/>
      <rect class="cls-7" x="242.17" y="497.82" width=".69" height=".89"/>
      <rect class="cls-7" x="243.37" y="497.82" width=".71" height=".89"/>
      <rect class="cls-7" x="244.58" y="497.82" width=".69" height=".89"/>
      <rect class="cls-7" x="245.78" y="497.82" width=".58" height=".89"/>
      <rect class="cls-7" x="246.86" y="497.82" width=".69" height=".89"/>
      <rect class="cls-7" x="248.07" y="497.82" width=".7" height=".89"/>
      <rect class="cls-7" x="249.27" y="497.82" width=".69" height=".89"/>
      <line class="cls-7" x1="240.55" y1="499.91" x2="249.27" y2="499.91"/>
      <path class="cls-13" d="M249.99,496.41v.82h-.69v-.82h-.5v.82h-.7v-.82h-.51v.82h-.69v-.82h-.5v.82h-.58v-.82h-.5v.82h-.69v-.82h-.5v.82h-.71v-.82h-.5v.82h-.69v-.82h-.5v.82h-.58v-.82h-.5v.82h-.76v-.82h-.51v3.48l1.24-.03v12.44h8.73v-12.44h1.2v-3.44h-.5ZM240.6,498.66h-.76v-.89h.76v.89ZM241.69,498.66h-.58v-.89h.58v.89ZM242.88,498.66h-.69v-.89h.69v.89ZM244.1,498.66h-.71v-.89h.71v.89ZM245.29,498.66h-.69v-.89h.69v.89ZM246.38,498.66h-.58v-.89h.58v.89ZM247.58,498.66h-.69v-.89h.69v.89ZM248.79,498.66h-.7v-.89h.7v.89ZM249.99,498.66h-.69v-.89h.69v.89Z"/>
      <path class="cls-3" d="M249.99,496.41v.82h-.69v-.82h-.5v.82h-.7v-.82h-.51v.82h-.69v-.82h-.5v.82h-.58v-.82h-.5v.82h-.69v-.82h-.5v.82h-.71v-.82h-.5v.82h-.69v-.82h-.5v.82h-.58v-.82h-.5v.82h-.76v-.82h-.51v3.48l1.24-.03v12.44h8.73v-12.44h1.2v-3.44h-.5ZM240.6,498.66h-.76v-.89h.76v.89ZM241.69,498.66h-.58v-.89h.58v.89ZM242.88,498.66h-.69v-.89h.69v.89ZM244.1,498.66h-.71v-.89h.71v.89ZM245.29,498.66h-.69v-.89h.69v.89ZM246.38,498.66h-.58v-.89h.58v.89ZM247.58,498.66h-.69v-.89h.69v.89ZM248.79,498.66h-.7v-.89h.7v.89ZM249.99,498.66h-.69v-.89h.69v.89Z"/>
      <polygon class="cls-30" points="246.3 499.91 240.55 504.75 240.55 501.57 242.52 499.91 246.3 499.91"/>
      <polygon class="cls-4" points="246.3 499.91 240.55 504.75 240.55 501.57 242.52 499.91 246.3 499.91"/>
      <polygon class="cls-30" points="249.27 501.06 240.55 508.39 240.55 512.35 249.34 504.96 249.27 501.06"/>
      <polygon class="cls-4" points="249.27 501.06 240.55 508.39 240.55 512.35 249.34 504.96 249.27 501.06"/>
      <polygon class="cls-30" points="249.34 509.18 245.57 512.35 249.34 512.35 249.34 509.18"/>
      <polygon class="cls-4" points="249.34 509.18 245.57 512.35 249.34 512.35 249.34 509.18"/>
      <line class="cls-6" x1="245.09" y1="493.64" x2="245.09" y2="491.84"/>
      <path class="cls-30" d="M246.05,491.04c0,.53-.43.97-.97.97s-.97-.43-.97-.97.43-.97.97-.97.97.43.97.97"/>
      <circle class="cls-4" cx="245.09" cy="491.04" r=".97"/>
      <line class="cls-3" x1="249.29" y1="499.85" x2="240.57" y2="499.85"/>
      <path class="cls-6" d="M240.82,496.47v-1.68c0-.63.51-1.14,1.14-1.14h5.95c.53,0,.97.42,1,.95l.11,1.88"/>
      <path class="cls-9" d="M340.24,329.1s11.83-5.33,21.55-4.15c0,0-7.05.71-9.25,3.13,0,0,7.05,2.67,10.27,5.33,0,0-14.73-4.39-22.57-4.31"/>
      <path class="cls-9" d="M335.87,327.97s2.73-7.89,1.63-11.45c0,0-.53,6.27-3.57,6.86,0,0-7.08-2.83-9.21-5.83-2.12-3,2.65,7,5.16,8.02,0,0-3.35.49-6.33-.78,0,0,3.69,4.57,12.32,3.19"/>
      <path class="cls-41" d="M272.88,323.83l.37,4.52c.06.73.4,1.39.95,1.87,1.52,1.31,4.88,3.74,8.83,3.68,5.4-.09,6.95-1.46,12.72,0,5.76,1.46,10.06,2.19,15.28,1.37,5.21-.82,13.63,1.01,16.01,2.65,2.38,1.65,10.79,1.92,15.73-.46,4.94-2.38,16.56,1.46,17.47,2.56.92,1.1,8.14,2.1,8.14,2.1,0,0,6.49-10.25,7.41-15.64,0,0-16.18-1.51-19.85,1.37,0,0,7.13,2.2,9.88,7.32,0,0-21.77-5.12-27.26-4.85v-1.42s-2.32,1.54-2.32,1.54v-1.94l-1.14,1.15s-11.89.7-13.87-5.35c0,0-32.8-4.16-48.35-.47"/>
      <path class="cls-28" d="M275.38,333.78c.21-.08.43-.06.62.03,1.29.62,6.73,3.02,11.17,1.36,5.07-1.89,11.7,1.38,11.7,1.38,0,0,7.45,1.88,12.45.44s13.02,1.88,13.02,1.88c0,0,4,2.25,8.44,1.94,4.44-.31,9.51-.62,11.32-2,1.81-1.38,11.45.81,11.45.81,0,0,4.57,1.71,4.82,2.52.25.8,6.51,1.86,6.51,1.86,0,0-22.85,33.42-55.67,33.16-32.83-.25-57.01-17.81-65.15-31.56l3.05-2.65,11.27-2.64,8.87-.91s2.21-.14,3.26-2.78c.74-1.86,2.21-2.59,2.88-2.84"/>
      <path class="cls-14" d="M234.81,320.14l1.37-.61c.25-.11.53-.13.8-.06l2.86.8c.51.14.87.61.87,1.14v.59c0,.76.71,1.33,1.45,1.15l.95-.22v1.05l1.86-.29c.36-.06.68-.28.86-.6l.49-.9v1.16c0,.65.53,1.18,1.18,1.18h13.42c.65,0,1.18-.53,1.18-1.18v-.35c0-.6.46-1.11,1.06-1.18.6-.06,1.06-.57,1.06-1.18v-.84c0-.49.3-.93.76-1.11l1.11-.42c.33-.12.69-.1,1,.07l1.25.7c.25.14.44.36.53.63l.35.96c.11.29.32.53.6.67l.16.08c.41.2.67.61.67,1.07v1.18l.94.52.42,5.06c.03.51.23,1,.55,1.39l1.65,1.6c.3.3.55.58.2.83l-1.81.77c-.2.07-.38.2-.52.37l-1.62,3.15c-.18.22-.94.66-1.22.71l-3.01.5s-2.01.2-2.1.21l-1.89.2c-.1.02-.19.04-.29.04h-2.63c-.09,0-.18.01-.27.03l-6.68,1.57-4.26,1.19c-.19.05-.37.15-.51.3l-1.62,1.6c-.5.5-1.33.45-1.76-.11-2.22-2.86-8.26-11.41-10.1-22.15-.09-.53.2-1.06.69-1.28"/>
      <path class="cls-41" d="M363.07,446.69s-3.73-2.69-5.9-2.95c-2.17-.26-2.78-2.52-3.38-3.04-.61-.52-5.38-.09-5.64,0-.26.09-5.81-4.68-6.51-4.51-.69.17-2.17-2.52-4.08-1.56-1.91.96-6.85-1.21-3.82-1.82,3.04-.61.26-3.56-5.29-3.56s-8.94,1.21-8.33-.69c.61-1.91,3.12.09,7.11-2.43,3.99-2.52,8.33-2.86,9.63-1.48,1.3,1.39,3.49,4.77,4.69,4.6,1.21-.17,3.03-.69,4.76.17,1.74.87,2.95,4.77,4.25,5.21,1.3.43,5.73,3.21,6.42,3.82.69.61,1.82,3.64,2.52,4.34s3.56,3.9,3.56,3.9"/>
      <path class="cls-16" d="M276.85,431.66h0s-.03.07-.06.11v-.11h.06-.06v.11s.05-.08.06-.11h0Z"/>
      <path class="cls-25" d="M69.9,469.93s33.44,5.45,45.18,3.2c0,0-18.02,15.06-20.28,20.63,0,0-20.75-6.76-24.9-23.83"/>
      <path class="cls-25" d="M67.53,472.18s2.49,17.67,25.73,24.07c0,0-1.54,3.2-.77,6.28.77,3.08,3.26,2.49.77,6.4-2.49,3.91-19.8,11.62-21.82,11.98,0,0-14.94-4.03-15.89-4.86,0,0,19.8,12.57,34.27,8.66,0,0-12.1-.71-16.72-3.08,0,0,10.55-2.49,18.38-7.35l-.7,2s3.46,2.9,1.3,7.96c-2.15,5.06-1.66,8.83-.65,10.51,1.01,1.68,8.14,5.96,8.56,12.76,0,0,.84,1.68-3.69,5.54,0,0-.59-3.19-2.43-4.53,0,0,2.77.92,4.62-.67l-8.06-.59s-17.63-4.36-25.44-14.36c0,0,13.52,11.33,30.56,8.73,0,0-21.91-2.35-26.61-8.4,0,0,9.65,3.69,19.81-.17,0,0-23,.67-29.3-4.53l-5.22-10.53-2.92-2.28-2.83-8.84-5.38-9.66s1.92-8.11,1.82-13.04c0,0,3.1,2.92,3.92,4.56,0,0,5.2,17.78,28.08,22.34,0,0-19.33-.82-28.63-9.03,0,0,12.95,16.87,35.56,9.12,0,0-19.78-2.92-31.36-18.51l-1.73-4.56s13.52,8.32,26.17,7.66c0,0-30.73-9.12-33.83-15.59l-1.09-7.98s14.41,4.97,19.6,3.14c5.2-1.82,5.91-3.14,5.91-3.14"/>
      <path class="cls-9" d="M99.33,540.11l9.75-7.85-3.81,9.28,12.14-2.86-9.04,9.52,9.99,3.57-15.82,2.97,5.71,8.09-11.18-5.35.83,3.93-3.57-5-6.19,9.76v-14.16l-7.26-2.26,5.71-1.78,5.89,1.25,2.2,5.49s4.17-1.37,5.36-2.8c1.2-1.42,2.82-4.68,2.26-6.15-.56-1.47-3-5.64-3-5.64"/>
      <line class="cls-20" x1="111.77" y1="335.99" x2="110.12" y2="338.26"/>
      <line class="cls-5" x1="111.77" y1="335.99" x2="110.12" y2="338.26"/>
      <path class="cls-34" d="M467.3,358.73v-10.95l2.15-.7,10.23-3.35,9.19-12.66,4.65-2.68,24.05-1.19,4.7,8.48,1.4,13.18-.98.07s-.14,3.36-1.75,3.15l-2.73.07-2.94,1.96s-.35,4.04-2.59,4.61c-2.24.57-4.14.27-4.63,0l-.98.64s-27.16,3.42-39.75-.64"/>
      <path class="cls-5" d="M467.3,358.73v-10.95l2.15-.7,10.23-3.35,9.19-12.66,4.65-2.68,24.05-1.19,4.7,8.48,1.4,13.18-.98.07s-.14,3.36-1.75,3.15l-2.73.07-2.94,1.96s-.35,4.04-2.59,4.61c-2.24.57-4.14.27-4.63,0l-.98.64s-27.16,3.42-39.75-.64Z"/>
      <polyline class="cls-5" points="467.3 351.59 476.53 352.35 475.49 347.91 467.3 347.78"/>
      <polygon class="cls-5" points="488.83 352.35 490.29 348.25 501.26 348.25 498.55 352.84 488.83 352.35"/>
      <path class="cls-5" d="M471.92,359.81s-.24-5.77,4.99-5.31l12.62.23s2.86,1.3,3.02,5.82"/>
      <line class="cls-5" x1="473.39" y1="360.03" x2="473.39" y2="355.57"/>
      <line class="cls-5" x1="476.22" y1="360.35" x2="476.22" y2="354.48"/>
      <line class="cls-5" x1="478.88" y1="360.55" x2="478.88" y2="354.53"/>
      <line class="cls-5" x1="481.17" y1="360.55" x2="481.17" y2="354.47"/>
      <line class="cls-5" x1="483.64" y1="360.71" x2="483.64" y2="354.61"/>
      <line class="cls-5" x1="485.93" y1="360.83" x2="485.93" y2="354.78"/>
      <line class="cls-5" x1="490.74" y1="360.85" x2="490.74" y2="355.57"/>
      <line class="cls-5" x1="488.35" y1="360.79" x2="488.35" y2="354.82"/>
      <path class="cls-5" d="M515.26,354.12s.8-5.17-4.13-5.17-4.39,8.16-3.09,9.78"/>
      <line class="cls-34" x1="518.58" y1="329.01" x2="506.29" y2="330.56"/>
      <line class="cls-5" x1="518.58" y1="329.01" x2="506.29" y2="330.56"/>
      <line class="cls-34" x1="513.26" y1="329.78" x2="516.89" y2="353.03"/>
      <line class="cls-5" x1="513.26" y1="329.78" x2="516.89" y2="353.03"/>
      <path class="cls-34" d="M503.84,340.71h4.59s.27-4.2,2.3-3.14c2.04,1.06,3.59,3.01,2.52,3.83-1.06.82-3.01.91-3.01.91h-3.95l3.22,6.99"/>
      <path class="cls-5" d="M503.84,340.71h4.59s.27-4.2,2.3-3.14c2.04,1.06,3.59,3.01,2.52,3.83-1.06.82-3.01.91-3.01.91h-3.95l3.22,6.99"/>
      <line class="cls-34" x1="522.27" y1="335.68" x2="511.74" y2="338.2"/>
      <line class="cls-5" x1="522.27" y1="335.68" x2="511.74" y2="338.2"/>
      <path class="cls-5" d="M518.2,352.15s.11-9.3,2.71-8.8c2.6.5,2.76,5.5,2.76,5.5"/>
      <path class="cls-34" d="M488.88,331.07l17.42-.51-2.46,10.15s-19.56,1.81-22.16.27c0,0-5.12-.86-2.79-3.15,2.33-2.29,4.44.88,4.44.88l5.55-7.65Z"/>
      <path class="cls-5" d="M488.88,331.07l17.42-.51-2.46,10.15s-19.56,1.81-22.16.27c0,0-5.12-.86-2.79-3.15,2.33-2.29,4.44.88,4.44.88l5.55-7.65Z"/>
      <path class="cls-5" d="M520.94,352.08s-3.38-4.92-.03-8.73"/>
      <path class="cls-5" d="M511.74,348.95s-4.52,4.32-.52,9.79"/>
      <line class="cls-20" x1="483.32" y1="338.72" x2="481.67" y2="340.99"/>
      <line class="cls-5" x1="483.32" y1="338.72" x2="481.67" y2="340.99"/>
      <path class="cls-34" d="M95.75,172.93v-10.95l2.15-.7,10.23-3.35,9.19-12.66,4.65-2.68,24.05-1.19,4.7,8.48,1.4,13.18-.98.07s-.14,3.36-1.75,3.15l-2.74.07-2.94,1.96s-.35,4.04-2.59,4.61c-2.24.57-4.14.27-4.63,0l-.98.64s-27.16,3.42-39.75-.64"/>
      <path class="cls-5" d="M95.75,172.93v-10.95l2.15-.7,10.23-3.35,9.19-12.66,4.65-2.68,24.05-1.19,4.7,8.48,1.4,13.18-.98.07s-.14,3.36-1.75,3.15l-2.74.07-2.94,1.96s-.35,4.04-2.59,4.61c-2.24.57-4.14.27-4.63,0l-.98.64s-27.16,3.42-39.75-.64Z"/>
      <polyline class="cls-5" points="95.75 165.78 104.98 166.55 103.93 162.1 95.75 161.97"/>
      <polygon class="cls-5" points="117.27 166.55 118.73 162.45 129.71 162.45 127 167.03 117.27 166.55"/>
      <path class="cls-5" d="M100.36,174.01s-.24-5.77,4.99-5.31l12.62.23s2.85,1.3,3.02,5.82"/>
      <line class="cls-5" x1="101.84" y1="174.23" x2="101.84" y2="169.77"/>
      <line class="cls-5" x1="104.66" y1="174.55" x2="104.66" y2="168.67"/>
      <line class="cls-5" x1="107.33" y1="174.74" x2="107.33" y2="168.72"/>
      <line class="cls-5" x1="109.62" y1="174.74" x2="109.62" y2="168.67"/>
      <line class="cls-5" x1="112.09" y1="174.9" x2="112.09" y2="168.81"/>
      <line class="cls-5" x1="114.38" y1="175.03" x2="114.38" y2="168.97"/>
      <line class="cls-5" x1="119.19" y1="175.05" x2="119.19" y2="169.77"/>
      <line class="cls-5" x1="116.8" y1="174.99" x2="116.8" y2="169.01"/>
      <path class="cls-5" d="M143.71,168.31s.8-5.17-4.13-5.17-4.39,8.16-3.09,9.79"/>
      <line class="cls-5" x1="147.02" y1="143.2" x2="134.74" y2="144.75"/>
      <line class="cls-5" x1="141.7" y1="143.98" x2="145.34" y2="167.22"/>
      <path class="cls-5" d="M132.28,154.91h4.59s.27-4.2,2.3-3.14c2.04,1.06,3.59,3.01,2.52,3.83-1.06.82-3.01.91-3.01.91h-3.96l3.22,6.99"/>
      <line class="cls-5" x1="150.72" y1="149.87" x2="140.19" y2="152.4"/>
      <path class="cls-5" d="M146.65,166.35s.11-9.3,2.71-8.8c2.6.5,2.76,5.5,2.76,5.5"/>
      <path class="cls-34" d="M117.32,145.26l17.42-.51-2.46,10.15s-19.56,1.81-22.16.27c0,0-5.12-.86-2.79-3.15,2.33-2.29,4.44.88,4.44.88l5.55-7.65Z"/>
      <path class="cls-5" d="M117.32,145.26l17.42-.51-2.46,10.15s-19.56,1.81-22.16.27c0,0-5.12-.86-2.79-3.15,2.33-2.29,4.44.88,4.44.88l5.55-7.65Z"/>
      <path class="cls-5" d="M149.36,157.55c-3.36,3.81.03,8.73.03,8.73"/>
      <path class="cls-5" d="M140.19,163.14s-4.51,4.32-.52,9.79"/>
      <line class="cls-20" x1="111.77" y1="152.91" x2="110.12" y2="155.18"/>
      <line class="cls-5" x1="111.77" y1="152.91" x2="110.12" y2="155.18"/>
      <path class="cls-20" d="M682.27,432.72l2.14-4.59s-1.9.63-2.14,1.27c-.24.63,0,3.33,0,3.33"/>
      <path class="cls-5" d="M682.27,432.72l2.14-4.59s-1.9.63-2.14,1.27c-.24.63,0,3.33,0,3.33Z"/>
      <path class="cls-35" d="M752.66,472.29s-.95-2.43-.14-4.21c.81-1.78-2.11-3.89-2.11-3.89,1.46,1.78-1.3,3.56-1.3,3.56,0,0-2.91-7.45-3.4-10.69-.48-3.24-6.96-5.83-9.88-5.99-2.91-.16-3.89-5.99-3.89-5.99,0,0,.32-3.08,2.75-4.37,2.43-1.29,5.67,7.13,5.67,7.13,0,0-.16-6.64-5.99-9.39-5.83-2.75-4.7,4.86-4.7,4.86,0,0,1.78,6.32,0,6.8-1.78.49-8.42-3.4-8.42-3.4,0,0-.16-6.48-3.08-7.77-2.92-1.3-2.75-6.48-2.75-6.48-2.27.49,0,6.32,0,6.32,0,0-2.75-1.94-6.48-2.75-3.73-.81-3.89-5.18-3.73-8.1.16-2.91,6.48.16,6.48.16-.49-3.08-5.99-3.72-8.75-2.91-2.36.69-1.59,6.62-.2,9.82.23.53.52-.1.77.32,1.78,2.91,1.37,2.5.56,5.25-.81,2.75-6.96-1.46-6.96-1.46-.49-2.91,3.56-4.86,3.56-4.86-.97-1.78-6.96,2.75-6.96,2.75-.16-2.43-4.05-5.34-4.53-6.64-.27-.72-1.16-1.53-.29-2.79,1.05-1.55,2.04.12,1.9.58,1.15-1.09.12-3.07-2.02-3-2.3.08-3.84.96-4.44,2.14-1.39,2.7-3.6,4.78-3.7,6.82-.19-3.31-3.42-6.01-3.42-6.01,0,0-7.77-3.56-7.61-7.29s5.99-3.08,5.99-3.08c0,0-4.21-2.11-10.69-.65-6.48,1.46-2.59,5.99-2.59,5.99,0,0,2.91.65,4.21,5.51,1.29,4.86-5.02,7.45-5.02,7.45.97-1.46,1.46-8.26,1.46-8.26,0,0-1.62-3.89-5.83-1.94-4.21,1.94-1.94,6.96-1.94,6.96,0,0,.81-3.89,2.92-5.35,2.1-1.46,2.1,2.27,2.1,2.27.16,2.92-6.96,6.15-6.96,6.15-3.73.65-12.31,6.48-12.31,6.48-.65-1.62-3.4-1.94-3.4-1.94-1.62-4.86,2.1-5.99,2.1-5.99-4.21-3.08-4.86,10.36-4.86,10.36,0,0-1.78,11.99-6.96,10.69-5.18-1.29-3.73-6.15-3.73-6.15-4.05,1.94,0,6.8,0,6.8,0,0-4.05.16-4.21-4.7-.16-4.86,3.24-11.34,3.24-11.34-4.05,2.92-5.51,9.07-5.51,9.07v7.45s-2.75,4.37-1.13,9.72c1.62,5.34-2.91,4.21-2.91,4.21-2.59.97-5.18,10.85-5.18,10.85-1.78.16-1.94-4.53-1.94-4.53-3.73,11.66,1.94,24.94,1.94,24.94,2.84,2.29,4.52-2.23,4.52-2.23,1.39,2.41,4.94.9,4.94.9,3.07,4.16,12.9-.18,12.9-.18,2.23,2.77,5.97-.36,5.97-.36,1.21,2.11,4.28,1.02,4.28,1.02,6.09,3.98,10.43-.36,10.43-.36,4.46,1.81,8.2-1.15,8.2-1.15,1.87.54,2.59.12,2.59.12,3.8,1.45,2.29-1.08,2.29-1.08,1.39.06,1.87-.66,1.87-.66,1.45,1.15,1.21-.48,1.21-.48,5.42,1.03,3.92-.72,3.92-.72,1.45,1.69,2.29-.54,2.29-.54,1.21.6,1.45-1.33,1.45-1.33,1.45.66,1.27-.96,1.27-.96,1.15,1.2,2.17.12,2.17.12,1.93,1.99,2.95.18,2.95.18,1.27,1.99,2.41-.96,2.41-.96-.18,4.94,2.47.96,2.47.96.84,1.27,2.05-.36,2.05-.36,1.57,1.63,4.52-.9,4.52-.9l-1.39,3.62c.84,1.15,1.57,0,1.57,0,.36,1.33,2.05,1.57,2.05,1.57-1.51.54-.86,2.12-.67,1.83.19-.29,4.22.77,4.22.77,2.59,1.92,6.81.67,6.81.67,7.48,6.14,13.8-1.15,13.8-1.15.48,1.34,4.22.57,4.22.57.86,2.3,7,.96,7,.96,2.2,1.25,5.08-.19,5.08-.19,1.63,1.25,5.18.67,5.18.67,1.44,1.25,4.31,2.4,7,2.21,2.68-.19,6.81-6.04,6.81-6.04l1.82,1.44s-.47,2.87.83-1.34c1.3-4.21-4.72-26.07-4.72-26.07M618.63,464.65s.78-5.37.39-8.25c0,0,1.77,1.77,1.7,4.58-.07,2.82-2.09,3.67-2.09,3.67M658.88,441.02s-2.22,2.03-3.93,1.44c0,0,3.01-2.23,4.65-4.91,0,0,.79,2.16-.72,3.47M677.28,438.19s-.63-4.59-3.25-8.79c0,0,2.45,0,3.25,3.01.79,3.01.08,4.2,0,5.78M703.97,434.78c-.63-.71-.16-4.35,0-3.17.16,1.19,1.98,3.88,1.98,3.88,0,0-1.35,0-1.98-.71"/>
      <path class="cls-26" d="M614.1,485.66s1.16,6.02,5.58,7.68c4.41,1.66,4.02.94,4.02.94,0,0,1.62-.29,1.34,1.05-.29,1.34-1.05,1.53-1.05,1.53,0,0,.76,2.1,1.91,2,0,0-.95-1.81,0-1.91.95-.1,1.81,0,1.91-1.72,0,0,5.82,3.63,8.4,2.19,0,0-.57,2.58,2.58.1,0,0,5.92.38,7.63-.57,1.72-.95,1.24-2,1.24-2,0,0-.57.57-1.62.76,0,0-.48-1.91-2.19-2.29,0,0,1.93.38,3.88-.57,0,0,7.38.19,7.38,1.72s-1.05,1.05-1.05,1.05c0,0,.86,1.53,2.67-.86,1.81-2.38.76-4.1.76-4.1,0,0,2.38.36,3.2,2.07.82,1.71,2.4.41,2.4.41,0,0-1.03.48-1.3-.07-.27-.55,1.03-.81,1.03-.81,0,0,1.92-.9.96-2.68-.96-1.78-.41-2.67-.41-2.67,0,0,.48.68,1.03.34.55-.34,1.03-1.44,0-.89,0,0,3.29-1.37,4.31-2.94,1.03-1.57,3.08-2.26,3.01-4.18,0,0,.68,1.92,1.09,0,.41-1.92.48-4.93-.48-3.83-.96,1.1-1.23,2.26-1.23,2.26,0,0-1.85-.48-2.47.07,0,0,2.67-6.16,2.19-8.7,0,0,1.3,2.53,1.3,0s-1.23-10.61-1.64-5.34l.07,2.81-1.44.75s-2.26-.75-3.42.07c0,0,3.49-2.67,1.03-2.74,0,0,2.88-5.62.75-11.91-2.12-6.3-1.51-8.97-1.51-8.97l.89-2.94s-4.31,2.46-3.97,5.68c.34,3.22-4.45,7.39-4.45,7.39,0,0-8.97,5.82-9.79,9.45l.14-1.92s-2.47,1.71-2.67,3.08c0,0,.68-8.08-1.64-10.82,0,0-.96,9.93-7.53,13.15-6.57,3.22-11.3,7.81-10.68,11.64,0,0-4.59-1.37-1.78-10.96,0,0-7.67,9.52-6.85,16.64.82,7.12,1.51,6.23,1.51,6.23,0,0-1.82.92-5.02-4.67"/>
      <path class="cls-26" d="M681.36,456.5s-2.21-13.75.81-18.31c0,0-.2,7.46,2.24,7.96,2.45.5,3.28-1,6.46.17,0,0-1.5-6.57,0-8.13,0,0,.67,5.79,4.84,7.79,4.18,2,4.18,4.18,4.18,4.18,0,0,4.78-2.67,6.07-2,1.28.67,2.28-5.58,2.28-5.58,0,0,2.51,6.08.67,11.26-1.84,5.18,2.34-.17,2.34-.17,0,0,2.17,2.17,0,5.68-2.17,3.51-.17,1.17,0,2.67.17,1.5.17,3.34.17,3.34,0,0-1.69-3.85-1.45-1.45.24,2.4,1.01,2.2.35,2.96-.66.77-5.93,8.39-6.14,9.72,0,0,.49-3.73-1.83-6.68,0,0-4.15-1.41-3.66-4.36,0,0-1.34,9.35-3.73,12.02,0,0,.42-3.09-.56-4.71,0,0-3.58-.42-4.22-6.82,0,0-.7,4.99-5.41,7.1,0,0,3.73-4.5.21-5.2-1.53-.31-3.1-2.6-4.39-5.1-1.66-3.23-2.85-6.78-2.85-6.78,0,0,3.24,3.94,3.62,2.53.38-1.41,0-2.09,0-2.09"/>
      <path class="cls-26" d="M674.7,487.43s-1.65-.79,0-1.22c1.65-.43,1.07,1.22,1.07,1.22,0,0,1.86-7.23,3.36-6.15,0,0-1.5.64-.43,1.5,1.07.86,1.52-2.58,2.65-2.58s1.35.79,1.35.79c0,0-2.07-.57-1.72.71.36,1.29,1.72.57,1.72.57,0,0,.86.14.86.43,0,0,3.79-3.36,11.09-1.93,0,0,4.43,1.22,5.15-1.72.72-2.93,3.01,0,3.01,0,0,0-1.93-1.5-2,.5-.07,2,.36,1.79.36,1.79,0,0,.93.57-.21,1.86,0,0,1.5-1.5.86.43-.64,1.93-1.14,2.07-1.36,1.22-.21-.86-.5,3.58-2.15,4.29-1.65.71-6.15,3.22-7.94,1.29,0,0-2.58,3.36-3.08-.86,0,0-.07,1.47-3.29,2.13,0,0-1.65.73-1.57,1.31,0,0-1.29-.57-.5-1.93,0,0-5.22,4.22-2.93-.79,0,0-2.79,1.5-4.08.93-1.29-.57-2.04,1.72-.95,1.79,0,0-1.63,1.14-1.49-2.08,0,0-2.72-1.07.29-2.29,3-1.22-.43-1-.43-1,0,0,.29-.64,2.36-.21"/>
      <path class="cls-26" d="M702.81,493.21s-.84-4.16.51-4.16c0,0-.41-4.03,1.14-3.57,1.55.47,1.34,1.09,1.34,1.09,0,0-1.76-.72-1.14.83,0,0,1.34-.1,1.76,1.14,0,0,1.55-7.02,4.75-5.16,3.2,1.86,5.68-7.23,5.68-7.23,0,0-.41-3.1,1.14-3.41,1.55-.31,1.96-2.27,1.96-2.27,0,0-.21-7.85,2.27-5.78,0,0-2.07,2.07,0,3.72,2.07,1.65,4.75,4.65,3.3,8.16,0,0,3.3-4.13,4.34-2.48,0,0,5.89-5.78,1.76-12.91,0,0,4.13-2.07,7.54,3.93,0,0,1.32-1.73,2.46-.97,0,0,5.26-6.41,4.69,2.3,0,0-1.72-5.26-1.91-.96,0,0,2.77,3.44-.38,5.45,0,0,2.87.19.48,1.44,0,0,3.35,1.82.96,4.02,0,0,2.01-1.24,3.16,0,0,0,4.11-.57,1.15-1.34,0,0,1.72-1.43,2.39-.1.67,1.34-.86,3.63-1.63,3.83-.76.19-3.35,5.64-7.08,5.45,0,0,5.16.76,3.44,5.74,0,0,1.34,3.44,3.83.29,0,0,3.35,3.06-3.16,4.21,0,0-4.21,1.15-4.3,2.96,0,0-1.82-.38-1.15-3.63,0,0-5.74,4.69-6.41,1.82,0,0-1.34,8.51-3.06-1.43,0,0-2.3,3.16-6.5,2.49-4.21-.67-3.63,1.72-3.63,1.72,0,0-1.53.1-1.05-2.49,0,0-6.03,5.16-10.71,3.11,0,0-.1,7.13-2.97-1.38,0,0-5.45,1.91-6.41-1.24,0,0-8.38-3.61,1.46-3.14"/>
      <path class="cls-12" d="M626.98,487.79s-1.49-1.61-.92-3.22c0,0,1.49,2.85,1.72.91,0,0,1.03-3.56,4.02-4.19,0,0,7.81-8.21,7.24-9.7,0,0,1.84,1.64-.8,6.16,0,0,5.51-3.75,9.19-4.1,0,0,5.16-2.01,5.51-9.01,0,0,1.72.17,1.38,4.31,0,0,1.72-4.02,2.07-1.72,0,0,2.18-2.07,2.18-3.68s3.56,7.81.46,12.12c0,0,2.6-.63.78,2.58,0,0,2.78-.37-2.16,3.42,0,0,.39,1.76,2.42,1.34.05-.01.09.05.05.08-.88.64-5.16,3.44-9.25.68,0,0,.11,1.93-1.49,1.71,0,0,.58,1.27-1.95,1.27,0,0-9.42,1.84-11.03,1.03,0,0,2.07,4.48-2.18,2.53,0,0,.11,1.38-2.76-1.03,0,0-8.15,3.79-4.48-1.49"/>
      <path class="cls-12" d="M688.93,457.88s-.56-4.96.49-7.13c0,0,1.79,8.9,7.17,6.43,0,0,.62-3.77,1.73.06,0,0,1.57-1.38,3.07-1.7.38-.08,3.11.12,3.37.12,1.24-.02-2.24.43-2.51,1.12-.34.87.18,2.14-1.27,4.43,0,0-.87,1.67,1.55,1.73,0,0-1.98,1.48-5.13-.43,0,0,.49,2.47-3.15,1.67,0,0,.31,1.81-1.11.16,0,0-1.55,5.34-2.04.15,0,0-1.3-1.79-1.73-1.36,0,0,.51,1.36-.58,1.05-1.09-.31-.41-1.55-.41-1.55,0,0-2.78-1.79-3.28.56,0,0-1.79-2.47,1.3-3.09,0,0-2.97-6.71,2.54-2.21"/>
      <path class="cls-12" d="M681.36,486.18s-.22-1.38-1.32-.25c-1.1,1.13.92,1.13,1.1.96,0,0-2.38,2.66,1.1,1.56,3.47-1.1,1.88.64,1.88.64,0,0,1.7.11,2.06-1.52,0,0,1.6.21,1.14-.71,0,0,4.72-3.51,7.66-2.34,0,0-2.34-2.73-5.57-1.31l-1.49.57s1.42-3.4-3.44.74l-2.23,1.88s-.18-1.1.28-1.13c0,0-1.09-.25-1.17.92"/>
      <path class="cls-12" d="M713.6,489.69s-.27-2.53-2.03-.61c-1.77,1.93-2.03,4.58-.71,3.69,0,0-1.68.97-1.5,3.18,0,0,2.11-2.12,2.11-1.15,0,0,2.39.79,4.95-1.15,0,0-.62,2.83,2.47.35,0,0,5.83-.8,6.27-3.71,0,0,0,1.85,1.06,1.85,0,0,.27,2.03-1.06,2.03,0,0,1.09.97,2.53-.55,1.44-1.52,8.99-2.54,8.99-2.54,0,0,2.76-1.04,0-2.11,0,0,4.14-3.93-.78-3.28,0,0,4.96-1.11,3.83-14.02,0,0-2.83,6.68-5.66,7.25,0,0,.57-3.06-2.04,1.02,0,0-3.62,6.4-8.61,5.81,0,0,2.49-16.34-3.51,1.22,0,0,.45-3.71-1.02-3.16-.43,1.86-2.02-1.87-.12-3.86-.74-.22-3.18,2.86-3.27,6.19,0,0-2.46,1.59-1.92,3.53"/>
      <path class="cls-33" d="M482.5,463.36l6.22,62.9v4.31s1.34,4.57,13.43-1.21c0,0-6.45-41.91,1.75-65.02,0,0-18.11.84-21.4-.98"/>
      <path class="cls-8" d="M500.94,466.74l.35-2.31s-10.93.36-13.46,0c0,0,10.41,2.31,11.76,2.31,0,0-5.1.73-9.63-1.16,0,0,5.45,6.11,10.62,5.05l.35-3.9Z"/>
      <path class="cls-8" d="M487.84,473.18s-.64,1.2,0,2.05,6.16,3.68,10.06,2.62c0,0-3.83,3.23-8.57.24,0,0-.07,4.44,7.93,3.94,0,0,1.54-.16,2.41-.92v-2.19s-1.16.97-2.98.64c0,0,2.2-.95,2.98-1.93v-1.26s-7.93-.36-11.83-3.19"/>
      <path class="cls-8" d="M489.42,485.91s-.83,2.92,1.53,3.33c2.36.42,5.14.83,5.14.83,0,0-2.64,2.64-5.7,2.22,0,0-1.12,2.22,2.29,2.64,3.41.42,5.35-1.53,5.35-1.53v-6.53s-5,1.67-8.62-.97"/>
      <path class="cls-8" d="M490.95,496.89s-1.75,2.5,2.25,4.03c4,1.53,4.84,1.39,4.84,1.39v-2.71s-3.33.49-7.09-2.71"/>
      <path class="cls-8" d="M490.57,501.33s1.22,4.03,7.47,3.61v2.78s-2.22.83-5.42-1.53c0,0,.97,4.03,5.42,3.2v2.5s-9.25,1.29-7.47-10.56"/>
      <path class="cls-8" d="M490.57,511.93s2.33,4.96,7.47,3.15v4.17s-3.06.97-4.38,0c0,0,1.4,2.37,4.38,1.53v1.81s-4.17,2.22-6.53,1.11l-.28-3.61s.26,1.87,1.97,1.11c0,0-2.49-3.89-2.86-5.7l.23-3.57Z"/>
      <path class="cls-8" d="M491.77,527.42v2.35s1.58,2.11,7.9-1.17l-1.08-3.29s-3.77,3.28-6.81,2.11"/>
      <path class="cls-33" d="M540.69,460.44s0,12.36-1.67,16.65c-1.67,4.29-9.63,17.45-11.85,25.22,0,0-3.89,1.94-4.07-.98,0,0,7.77-11.53,8.79-19.25,0,0,2.87-4.91,3.24-11.32,0,0,0-8.07-1.48-9.18l7.03-1.13Z"/>
      <path class="cls-8" d="M535.36,462.37l.35,1.47s2.56,1.38,3.72,1.3c1.16-.08,0-1.78,0-1.78,0,0-1.09.94-2.6-.56,0,0,1.46.32,2.04-.07v-.74l-3.52.37Z"/>
      <path class="cls-8" d="M536.31,467.35v1.41s1.3.58,2.28.58c0,0-1.67.8-2.57.58v1.19s.9,1.26,2.85.76l.29-1.16s-1.34.51-2.24-.15c0,0,2.42-.76,2.57-1.08v-1.19s-2.35.22-3.18-.94"/>
      <path class="cls-8" d="M536.02,473.5l-.4,1.34s1.6,1.14,2.84.43c0,0,.4-1.01.4-1.47,0,0-2.18.54-2.83-.3"/>
      <path class="cls-8" d="M535.36,476.82s.91.66,2.29.47c0,0-1.74,3.58-2.03,4.41,0,0-1.09-.61-1.02-3.99,0,0,.68,2.49,1.02,1.56,0,0,1.02-1.25,0-1.4l-.26-1.04Z"/>
      <path class="cls-8" d="M533.62,480.39s.12,3.56.98,3.73l-.98,1.81s-.98-3.37,0-5.54"/>
      <path class="cls-8" d="M531.13,487.03s-.69,3.42-.52,4.92l-.52,1.4s-.62-2.95,1.04-6.32"/>
      <path class="cls-8" d="M529.48,490.39s.1,2.75.62,2.95l-.85,1.66s-1.17-2.75.23-4.61"/>
      <path class="cls-8" d="M526.24,497.6s.26,1.58,1.21,1.4l-.39,1.31s-1.21-.63-.82-2.71"/>
      <path class="cls-33" d="M438.15,463.36s7.18-2.58,11.69-1.6c0,0-1.44,17.14,2.52,21.41,3.96,4.27,9.43,15.48,9.16,21.63-.27,6.15-1.91,11.07-1.91,11.07,0,0-5.59,1.78-9.77-.55,0,0,3.49-8.63,0-17.5-3.49-8.87-8.27-11.74-8.95-19.26-.68-7.51-2.73-15.2-2.73-15.2"/>
      <path class="cls-8" d="M442.31,462.92s2.7,1.18,5.02,1.14c0,0-4.95,2.88-5.02-1.14"/>
      <path class="cls-8" d="M447.79,465.54c.07.33-5.87,2.12-6.34-.34-.75.05,1.62,4.79,6.34,3.28v-2.94Z"/>
      <path class="cls-8" d="M440.93,469.69s5.41,6.91,8.4,7.02c0,0-4.55.35-6.33-1.9-.37-.5,1.63,3.32,6.33,4.03l.86,2.65s-6.52-1.9-7.8-3.92l-.99-4.43,1.83.64-2.3-1.96s-.29-1.27,0-2.13"/>
      <path class="cls-8" d="M445.85,484.3l1.83,3.05s2.39.74,4.83,0c0,0-2.14,2.03-3.66,2.03l.33,1.27s4.21-.72,6.33,0c0,0-2.24-4.47-3.41-5.59,0,0-1.68.56-2.8.31-1.12-.25-3.46-1.07-3.46-1.07"/>
      <path class="cls-8" d="M451.4,495.75l.88,2.97s2.57,1.01,6.18-.9l-1.12-2.82s-3.37,1.01-5.93.75"/>
      <path class="cls-8" d="M453.17,500.88s1.28,2.89,5.61,2.65v-2.19s-2.8,1.15-5.61-.45"/>
      <path class="cls-8" d="M454.13,504.41s1.92,1.7,4.65,1.04v2.57s-4.33.88-5.29-.48l.64-3.13Z"/>
      <path class="cls-8" d="M453.17,510.5l-.81,3.1s.18,2.62,6.11.58l.32-2.25s-3.55,3.03-4.58.8c0,0,3.48-.49,4.26-1.75,0,0-4.48,1.16-5.29-.49"/>
      <path class="cls-18" d="M663.6,311.11s27.29,2.26,27.81-11.47l19.99-13.21-15.47,37.2s29.37-5.56,38.24-10.43c0,0-28.16,43.8-48.49,59.27,0,0,10.78-25.38,9.39-40.67l-36.24,10.11c-1.87.52-3.59-1.2-3.06-3.07l7.84-27.72Z"/>
      <path class="cls-27" d="M488.58,145.52l-58.14,2.1s24.45,38.76,63.18,37.47c0,0,47.53-2.38,65.35-37.56l-20.33-.8v5.48l-29.35,6.74-20.79-7.54.07-5.89Z"/>
      <polygon class="cls-17" points="490.86 138.1 490.86 150.69 509.15 157.02 509.15 138.1 490.86 138.1"/>
      <polygon class="cls-17" points="534.93 151.61 509.15 157.02 509.15 138.1 534.93 138.1 534.93 151.61"/>
      <polygon class="cls-21" points="525.21 131.85 509.15 138.1 534.93 138.1 525.21 131.85"/>
      <polygon class="cls-17" points="525.21 131.85 496.88 131.85 488.79 138.29 509.15 138.29 525.21 131.85"/>
      <polygon class="cls-17" points="525.21 131.85 536.65 139.22 536.65 141.02 539.78 143.36 534.93 143.36 534.93 138.29 525.21 131.85"/>
      <rect class="cls-21" x="536.7" y="143.36" width=".84" height="8.14"/>
      <polygon class="cls-21" points="519.19 154.91 519.19 143.36 527.14 143 527.14 153.25 519.19 154.91"/>
      <polygon class="cls-10" points="523.16 154.08 523.16 143.18 523.59 143.16 523.59 153.99 523.16 154.08"/>
      <polygon class="cls-21" points="498.8 138.29 498.8 153.44 500 153.85 500 138.29 498.8 138.29"/>
      <polygon class="cls-21" points="509.15 138.29 509.15 157.02 508.11 156.66 508.11 138.29 509.15 138.29"/>
      <polygon class="cls-21" points="509.15 138.29 509.15 157.02 510.28 156.78 510.28 138.29 509.15 138.29"/>
      <polygon class="cls-21" points="490.86 138.1 490.86 150.69 491.37 150.86 491.37 138.1 490.86 138.1"/>
      <polygon class="cls-21" points="500 139.29 507.41 156.42 508.11 156.66 508.11 154.91 500.9 138.29 500 138.29 500 139.29"/>
      <polygon class="cls-21" points="508.11 139.53 500.66 154.08 500 153.85 500 152.88 507.58 138.29 508.11 138.29 508.11 139.53"/>
      <polygon class="cls-21" points="498.8 139.2 491.6 150.94 491.37 150.86 491.37 150.31 498.56 138.29 498.8 138.29 498.8 139.2"/>
      <polyline class="cls-21" points="491.65 138.29 498.8 152.98 498.8 153.44 497.77 153.08 491.37 138.86"/>
      <polygon class="cls-17" points="135.17 525.2 132.32 530.71 138.9 537.61 143.18 529.33 135.17 525.2"/>
      <polygon class="cls-17" points="151.41 541.08 138.9 537.62 143.18 529.34 154.47 535.16 151.41 541.08"/>
      <polygon class="cls-17" points="151.62 530.23 139.22 523.82 134.22 524.82 143.14 529.42 151.62 530.23"/>
      <polygon class="cls-17" points="151.62 530.23 154.97 536.04 154.56 536.83 155.4 538.56 153.28 537.46 154.42 535.25 151.62 530.23"/>
      <rect class="cls-21" x="151.31" y="539.53" width="4.01" height=".41" transform="translate(-396.61 428.37) rotate(-62.69)"/>
      <polygon class="cls-21" points="143.77 538.96 146.38 533.9 149.95 535.55 147.63 540.03 143.77 538.96"/>
      <polygon class="cls-10" points="145.7 539.5 148.17 534.72 148.36 534.81 145.91 539.55 145.7 539.5"/>
      <polygon class="cls-21" points="138.61 527.08 135.18 533.71 135.61 534.16 139.13 527.35 138.61 527.08"/>
      <polygon class="cls-21" points="143.14 529.42 138.9 537.62 138.53 537.22 142.68 529.18 143.14 529.42"/>
      <polygon class="cls-21" points="143.14 529.42 138.9 537.62 139.45 537.77 143.63 529.67 143.14 529.42"/>
      <polygon class="cls-21" points="138.9 527.79 138.28 536.96 138.53 537.22 138.92 536.46 139.52 527.55 139.13 527.35 138.9 527.79"/>
      <polygon class="cls-21" points="142.4 529.73 135.85 534.41 135.61 534.16 135.83 533.74 142.45 529.06 142.68 529.18 142.4 529.73"/>
      <polygon class="cls-21" points="138.4 527.47 132.59 530.99 132.51 530.9 132.63 530.66 138.5 527.02 138.61 527.08 138.4 527.47"/>
      <polyline class="cls-21" points="135.47 525.46 135.29 533.51 135.18 533.71 134.81 533.32 135.22 525.65"/>
      <path class="cls-41" d="M690.84,98.5c2.53-3.97,4.08-9.2,4.08-14.92,0-12.45-7.27-22.53-16.24-22.53s-16.24,10.09-16.24,22.53c0,7.09,2.36,13.4,6.04,17.53,1.69,3.81,7.37,15.18,8.45,21.04.63,3.44-.74,5.27-.74,5.27,0,0,.02,0,.02,0-1.18.87-1.98,2.49-1.98,4.37,0,2.79,1.75,5.04,3.9,5.04s3.9-2.26,3.9-5.04c0-1.85-.78-3.44-1.92-4.32,0-.01,0-.02-.02-.03-.73-1.08-.31-5.25-.17-6.38,2.25-7.01,6.02-15.55,10.27-21.42.39-.4-1.11,1.25-.75.81,0,0,.01-.02.02-.02.83-.81,1.26-1.45,1.39-1.94"/>
      <path class="cls-36" d="M633.5,333.23s4.68-.78,10.25-5.85l-3.23,6.91,6.04-2.85c.3-.14.62.14.51.45-1.14,3.29-4.9,15.64-.59,25.02,0,0-9.7-10.81-9.2-19.06l-5.57,1.45s1.56-2.95,1.78-6.08"/>
      <path class="cls-36" d="M721.44,283.68s6.8-1,9.2-2.4l-2.06,5.63,16.83-9.36s-3.79,23.24-7.13,27.59c0,0,1.52-14.92-.72-18.45l-21.38,15.44c-.21.15-.49-.06-.4-.3,1.2-3.35,5.77-16.21,5.68-18.15"/>
      <path class="cls-41" d="M345.78,146.22c.32-2.89-2.35-2.89-2.35-2.89-1.28-3.85-4.7-2.78-4.7-2.78-3.64-11.98,0-46.4,0-46.4-1.39.64-3.53.21-3.53.21-3.53,12.62.75,49.29.75,49.29l-1.39.11c-5.88-37.21-.86-49.51-.86-49.51-2.57.43-4.38-.32-4.38-.32-2.14,8.77-.96,44.27-.96,44.27-4.81-5.99-3.1-44.69-3.1-44.69-4.38-.21-13.02-1.71-13.02-1.71,2.27,11.33,0,45.99,0,45.99v-.36c0-26.36-1.83-44.99-1.83-44.99-6.79,3.51-13.88.42-13.88.42-3.07,1.37-6.58,1.07-6.58,1.07-10.86-3.41-17.68,2.4-17.68,2.4,6.04,15.75,3.05,46.05,3.05,46.05-1.07-.11-1.28,3.42-1.28,3.42-1.92-.43-5.35,1.82-5.35,1.82-1.82-.43-3.21,1.5-3.21,1.5,2.78,1.39,14.86-1.28,14.86-1.28,5.67,3.21,13.9.43,13.9.43,0,0,5.67,1.18,7.48-.53,1.82-1.71,8.77.86,8.77.86,2.78,2.14,3.1.54,3.1.54,0,0-.75-1.28,2.89.13,3.64,1.41,5.88-.56,5.88-.56,0,0,3.53-1.93,8.23-.54,4.7,1.39,17.75-.64,17.75-.64,0,0-2.14.85.54.32,2.67-.54-3.1-1.6-3.1-1.6M279.17,140.02s2.99-33.25-1.71-45.44h1.71s4.81,35.18,0,45.44M288.37,143.66s-1.6-36.67,1.5-49.08h1.28c1.18,3.42-2.78,49.08-2.78,49.08M306.44,95.97c1.18,5.67,2.89,42.23,2.89,42.23-5.99-12.4-2.89-42.23-2.89-42.23"/>
      <polygon class="cls-37" points="496.76 303.39 494.85 312.14 490.08 308.96 493.42 314.37 485.94 315.06 492.94 317.4 490.39 322.18 494.69 318.83 496.36 327.98 498.35 318.51 502.65 320.74 500.52 316.69 506.79 314.21 499.93 314.1 502.18 309.6 498.04 311.83 496.76 303.39"/>
      <path class="cls-37" d="M484.47,255.47v1.25l.27.76-.6.6.6,2.29.54.75-.33,5.1,1.36,1.68-.49,5.21.49.33.71,8.35,1.63,2.39,1.36,8.95-.81,3.47,1.84,2.33v2.33l10.41-.32-.7-1.63.92-1.25s-1.79-10.2-1.52-11.01l1.52-1.57v-2.71l.38-1.08-.76-3.63,2.28-2.82-.54-3.47-.98-.6,1.52-2.44s-.38-.65,0-1.63c0,0,.92-4.12,0-6.94,0,0,.43-.6,1.19-.49,0,0,.38-2.6-.54-3.85l-2.88.22-.05-1.79-1.19,1.36-4.01.16-.71-.92-1.52.16-1.79.87-.98-.43s-5.26.43-6.62.05"/>
      <path class="cls-38" d="M445.71,352.84s2.11,2.64,6.74,5.37c0,0-1.46-3.39-1.38-3.74l-.08.35-.57-12.87.55-.43.61-4.9s3.71-3.23,9.23-2.58c0,0,2.61-.16,4.65,1.74,0,0,1.42.39,0-.94-1.42-1.32-3.78-1.68-3.78-1.68,0,0,3.37-1.9,6.84-7.56,0,0,1.39-2.83-2.28.89,0,0-2.43,3.96-4.82,5.71l-1.44.75s-6.65,0-8.19,2.28l.5-2.93s.84-1.29.45-1.74c0,0,2.73-.7,3.13-2.19l3.08-.15,3.52-1.74,1.09-2.48s.3-1.89-1.04-.3l-.79,1.89s-2.98,2.23-5.01,1.89l4.91-5.86,3.13-5.26s0-1.44-1.44.35l-3.42,5.11s-1.14-2.04-.99-3.92c0,0,.84.05.84-.94l2.18-2.83s.55-2.04-.99-.55c0,0-1.74,2.04-1.84,2.63l.5-5.26s-.25-1.79-1.24,0c0,0-1.54,7.85.45,12.11l-4.27,4.92-1.89.84s-2.53,2.63-2.63,3.77l-.4-1.29s2.18-1.74,2.38-3.67c.2-1.94,1.59-12.06,1.19-15.14,0,0-.84-.84-.99.74-.15,1.59.15,7.64-.99,10.72l-.89,2.04-1.39-2.93s-1.49-1.19-.74.6c.74,1.79,1.44,2.88,1.44,2.88l-2.28,2.33.25,3.52-.74-.1-.35-1.14-.78.56-2.05-.91s-1.84-2.28-.99-7.4l3.28-2.28.4-9.03s-.84-2.88-1.24.15c-.4,3.03-.15,7.99-.15,7.99l-2.73,2.08-.3-6.63s-.84-2.5-1.29.63l.4,6.75-.84-.1s-1.89.45.84,1.34c0,0,.3,6.11,1.44,7.05,1.14.94-2.92.89-2.92.89,0,0-3.68-3.18-5.92-11.07v-2.13s-.4-3.38-1.39-.15l2.83,13.65,2.04.74s1.64,1.99,1.79.65l1.69.5,5.56,4.27s1.81,2.1-.43,14.14"/>
      <path class="cls-28" d="M240.82,529.9l3.36-6.16c.25-.46.73-.74,1.25-.74h11.62c.56,0,1.04-.39,1.15-.94l.57-2.76c.08-.4.42-.7.83-.72,1.72-.1,6.22-.05,8.03,3.15,0,0,2.54,2.09,7.45-.54,0,0,3.82.09,6,3.72,0,0,2.41,2.06,5.72,0,0,0,10.27-.91,12.17,3.54,1.91,4.45,13.02,3,13.02,3,0,0,3.7-.73,4.7,1.27,1,2,8.63,2.64,8.63,2.64,0,0,2.45-.91,4.54,1.54,2.09,2.45,7,1.27,7,1.27,0,0,3.91-.27,4.45,1.64.55,1.91,12.9,6,15.35,5.27,0,0-16.37,22.68-57.93,22.35-41.56-.33-57.92-37.52-57.92-37.52"/>
      <path class="cls-14" d="M239.82,528.21l3.6-6.32,13.44-.56.9-2.79s.07-1.31-1.88-1.17l.35-1.46-1.32-2.15-.97.42-.21-3.41h-1.95l-1.3,1.88-.37-1.24v1.32h-10.31v-3.1s-6.62-.59-7.43.32c0,0,3.07,12.51,7.43,18.26"/>
      <path class="cls-28" d="M117.18,541.62h10.99l8.31,20.23s-20.44,7.5-43.98.67l1.87-4.04,4.52,4.53-.55-3.9,12.01,5.62-6.08-9.52,15.06-3.82-9.21-3.9,7.05-5.86Z"/>
      <path class="cls-27" d="M87.11,558.09v-5.46l-11.08-2.29,7.88-3.64s-8.97-1.72-14.82-7.8h-8.35s13.18,15.6,26.37,19.19"/>
      <path class="cls-28" d="M545.53,113.45s0,0,0,0c-.01.06-.02.11-.04.17l.04-.17Z"/>
      <path class="cls-28" d="M563.11,130.96s0,0,0,0c0,0,0,0,0,0,0,0,0-.01,0-.01"/>
      <path class="cls-28" d="M545.48,113.62l-.38,1.46c.15-.52.27-1,.38-1.46"/>
      <path class="cls-28" d="M562.89,131.46c.07-.17.14-.33.21-.49-.19.21-5.38,6.01-8.11-3.2,0,0-2.45,1.04-2.89-3.19,0,0-4.75.26-5.23-3.34,0,0,1.63,3.3,7.31,2.56l-1.22.7s-.15,4.15,3.12,1.67l-.22,1.19s.74,7.86,7.26,3.6c10.31-24.03-18-15.88-18-15.88,0,0-4.26,2.54-4.58-2.97,0,0,1.11,4.85,5,1.34,2.33-10.61-7.55-6.4-10.01-5.2-4.72-5.92-12.72-5.18-12.72-5.18,4.68-7.33-4.06-6.08-4.06-6.08-13.73-20.59-32.14-1.25-32.14-1.25-2.5-8.58-17.94-6.71-17.94-6.71.16-7.18-14.66-1.25-14.66-1.25-13.78-10.24-17.42-5.73-20.38-4.06h0s3.04,1.26,3.45,2.37c0,0-3.01-2.09-4.27-1.99h.02c-.42.13-.83.19-1.29.1-3.9-.78-7.02,2.18-7.02,2.18-.8,2.81-1.43,5.52-1.94,8.16,2.58-.96,6.09.18,6.09.18-3.05-.61-5.92.62-6.27.77-1.84,10-1.78,18.72-.81,25.98.07,0,15.49.94,15.81,6.12,0,0,3.9-.03,4.57,1.11,0,0-.57-5.14,4.74-7.87l-.3-.98s5.63,2.65,6.87-1.54l-.84-.35s7.74-.92,6.55-6.25c-1.19-5.33-9.04-2.19-9.04-2.19,0,0,6.74-5.17,10.04,1.6,0,0,1.79,6.79-5.74,7.28,0,0-1.84,4.65-6.9,2.79,0,0-5.33,3.06-4.49,8.17,0,0,4.95,5.65-.92,9.39,0,0,1.43,3.84-1.89,4.33,0,0,2.11-1.38,1.08-4.25,0,0,4.84-3.95,1.95-7.71,0,0-.62-2.35-5.44-2.57-.13-.1.48,5.59-2.33,6.17-.23-.13,2.92-6.07.35-8.33-2.88-2.53-5.75-3.41-13.93-3.88,2.25,15.19,8.33,23.68,8.33,23.68l16.39-.74c1.88-15.86,16.99-21.47,16.99-21.47-14.34,7.77-16.07,21.43-16.07,21.43h-.25s41.78-1.87,41.78-1.87l-.09-4.24-2.95.04,10.81-8.8h29.51l3.52,2.44c2.48-1.15,3.41-3.68,3.41-3.68.11,2.67-2.85,4.07-2.85,4.07l3.11,2.15-1.29-.89s11.57,3.02,10.92-6.92c0,0,1.65,1.93.5,4.49,0,0,3.08,1.93,5.34-.96,0,0-.37,3.71-5.84,2,0,0-4.85,4.51-9.41,2.44l3.82,2.64v1.15c5.26-.96,4.68,2.41,4.68,2.41-.45-2.67-4.68-1.71-4.68-1.71v.36l3.89,3-2.47,1.5,20.94,1.24c3.59-6.71,6.53-16.2,6.53-16.2l-3.43,1.4ZM425.25,120.83c-1.43-8.06,7.28-8.93,7.28-8.93-6.85,2.22-7.28,8.93-7.28,8.93M448.17,99.37s-.81,1.46-1.68,1.19c0,0,5.06,7.25-7.66,6.09,0,0-1,4.19-3.98,4.33,0,0,7.47-6.14-.51-7.96,0,0,3.38-2.27,4.65,2.87,0,0,14.83,1.08,3.11-7.87,0,0-.3-1.6,3.65,1.65,0,0,3.44,1.03.87-4.49,0,0,2.03,1.19,1.84,3.57,0,0,9.96,2.17,6.98-7.58,0,0,5.79,10.01-7.28,8.2M461.38,138.29c.1,3.06-3.77,1.91-3.77,1.91,3.86-.24,2.84-1.91,2.84-1.91h-.9c5.7-3.31-.58-4.7-.58-4.7,6.95.34,2.41,4.7,2.41,4.7M468.8,100.18c-.37,7.64,6.05,5.79,6.05,5.79,6.97,10.24,12.72-2.86,12.72-2.86-5.79,16.06-12.98,3.75-12.98,3.75-8.9.96-5.79-6.68-5.79-6.68M460.9,96.99s6.34-.96,7.31-6.08c0,0,1.34,6.01-7.31,6.08M476.44,134.49s-3.8,2.81-.78,5.42c0,0-3.49-1.04-.83-5.26,0,0-1.88.31-2.92-.1,0,0-1.09,5.16-7.76,3.75,0,0,7.14.68,7.4-6.98,0,0,.89,1.36.63,2.29,0,0,10.52,1.25,8.44-7.35-1.96-8.1-13.26-3.62-14.56-3.07-.08.04-.12.06-.13.05,0,0,.05-.02.13-.05,1.3-.59,12.69-5.86,14.93,1.54,0,0,1.51-1.9,2.82-2.01,0,0-2.19,2.61-2.34,3.54,0,0,2.81,6.62-5,8.23M485.55,121.45c-.64.42,6.57-7.43,15.32-5.72,0,0-9.79,1.17-15.32,5.72M492.84,129.07s1.35,1.93-.52,3.49c0,0,.78-2.08,0-2.97,0,0-2.24,1.46-2.97,1.35,0,0,11.08-8.39,4.26-9.85,0,0,7.46-.47-.77,7.97M508.4,122.8s-2.86,2.6-6.05,2.37c0,0,2.15,3.18-2.95,2.52,0,0,3.86-.44,2.25-2.34,0,0-2.34.49-4.38-.45,0,0,18.41-.81,8.87-9.78,0,0,6.21,1.19,3.01,7.09,0,0,2.59,2.37,6.93-.41,0,0-2.56,4.27-7.68,1M513.33,103.96s-5.75.43-7.9-1.67c0,0-.85,3.97-4.86,2.52,0,0-4.38,7.46-9.9,1.97,0,0,5.9,3.41,8.98-2.63l-1.41-1.34s5.27,3.34,6.31-.96l-1.26-1.66s8.75,6.37,13.69.25c0,0-.93,2.34-2.74,2.97,0,0-.18,5.24,7.83.56,0,0-6.75,6.01-8.72,0M530.77,116.79s-6.83,8.79-8.72-3.97c0,0,3.08,12.68,9.46,1.11,0,0,.7.98-.15,1.88,0,0,2.34,1.87,3.71-2.69,0,0,.41,5.04-4.3,3.67M541.97,145.21l-.63-.04s2.82-4.53,5.79-2.01c0,0-2.45-1.29-5.16,2.05M554.47,143.16l-.41.37s.18-2.04-2.86-1.85c0,0,.18,1.26-.26,1.48,0,0-.37-5.46-6.34-2.63,0,0,3.6-3.41,6.31.37,0,0,2.97.04,3.26,1.15,0,0,1.59-.7,1.52.22,0,0-1.34-.34-1.22.89"/>
      <polygon class="cls-28" points="530.29 133.36 530.29 133.36 530.02 133.16 530.29 133.36"/>
      <path class="cls-28" d="M422.54,94.55l-.18.96s.01,0,.04-.02c.06-.32.12-.64.18-.96-.01,0-.02,0-.04.01"/>
      <path class="cls-28" d="M421.61,121.64c0-.05-.01-.11-.02-.16h0l.02.16Z"/>
      <path class="cls-28" d="M421.73,122.49s0,0,0,0c-.03-.23-.07-.45-.1-.68l.1.68Z"/>
      <path class="cls-28" d="M446.46,145.43l.68-.03-.68.03Z"/>
      <path class="cls-21" d="M338.19,239.29s.1,0,.14-.01c-.05,0-.09,0-.14.01"/>
      <path class="cls-21" d="M272.48,237.74s.24-.07,3.15-.88c0,0-1.32.24-3.15.88"/>
      <path class="cls-21" d="M378.41,274.91s-.65-4.88-5.2-4.88c0,0-.19-1.63-1.56-2.2,0,0,3.02-9.51-10.96-9.51,0,0,1.64-2.28-2.35-1.63,0,0-1.74-18.29-19.59-17.43-9.21,1-12.43,7.16-12.43,7.16-4.3-4.21-8.23,1.5-8.23,1.5,1.68-6.27,7.86-3.37,7.86-3.37,2.43-3.64,8.05-4.78,11-5.14-.16.02-.32.03-.48.05,0,0-3.73-7.64-12.11-6.51,0,0-28.38-19.52-48.71,3.9,3.15-.88,5.29,1.61,5.29,1.61,19.18-2.99,20.68,4.96,20.68,4.96,7.3-1.03,8.84,2.99,8.84,2.99-1.92-2.9-9.22-1.5-9.22-1.5-3.65-9.36-20.87-4.77-20.87-4.77.19-2.15-7.88-2.41-7.89-2.41-3.98,1.39-10.33,4.68-10.6,11.48,0,0-13.15-2.76-14.01,10.08,0,0-30.13,20.33,16.7,12.52,0,0,9.92,5.69,20.98-1.79,0,0,10.9,6.83,17.24,2.44,0,0,10.41,6.34,23.42-1.3,0,0,15.29,2.11,23.58-.65,0,0,25.7,7.48,34.31,5.53,8.62-1.95-5.69-1.14-5.69-1.14"/>
      <polyline class="cls-21" points="272.48 237.74 272.48 237.74 272.48 237.74 272.48 237.74"/>
      <path class="cls-21" d="M338.83,239.25s-.19,0-.5.03c.14,0,.27,0,.41-.01.03,0,.06-.01.09-.01"/>
      <path class="cls-21" d="M336.93,239.41c.42-.05.85-.1,1.26-.12-.32.02-.74.06-1.26.12"/>
      <path class="cls-21" d="M171.71,445.67c6.34-3.25,9.92,6.02,9.92,6.02,13.01,0,8.62,10.08,8.62,10.08,2.6-.81,2.93,2.28,2.93,2.28,19.35,3.74-5.53,2.6-5.53,2.6-.32,3.09-3.41,3.28-3.41,3.28,4.07-.62,8.13,4.04,8.13,4.04,2.11-.33,21.47,1.95,21.47,1.95l-27.16,1.95c-16.91,8.29-36.26-5.69-36.26-5.69-3.9,2.44-9.14,0-9.14,0,0,0-3.87,0-2.99-2.25.88-2.25,2.99-1.22,2.99-1.22,0,0,7.86-1.38,14.24-2.27-6.53-.26-14.67-1.09-14.67-1.09-4.37,4.07-14.49,1.79-14.49,1.79-12.03,7.48-56.44,0-56.44,0-8.79,9.92-34.63,1.79-34.63,1.79l-30.57,1c-4.88-3.39,16.75-2.96,16.75-2.96,2.11-6.34,6.83-4.07,6.83-4.07,2.76-7.64,10.9-7.32,10.9-7.32,1.79-10.57,13.66-11.71,13.66-11.71,7.57-12.33,15.53-14.82,20.31-15.01,9.89,2.2,15.6,11.2,15.6,11.2,9.36-1.95,12.36,2.86,12.36,2.86,9.1-.13,13.98,9.23,13.98,9.23-.85-9.75-12.94-10.66-12.94-10.66-4.29-6.11-13.27-2.86-13.27-2.86-2.99-6.5-11.32-9.24-11.32-9.24,3.58-8.29,15.94-5.86,15.94-5.86,33.18-29.6,50.14,1.79,50.14,1.79,8.83-.65,11.77,6.5,11.77,6.5,19.14-1.47,16.32,13.83,16.32,13.83-4.94.13-15.34,10.92-15.34,10.92-3.12-3.38-5.2,1.04-5.2,1.04,3.25-2.86,5.85.65,5.85.65,0,0,9.87-10.79,14.69-12.61s0,0,0,0"/>
      <path class="cls-21" d="M73.14,428.88l4.41.53s-1.69-.64-4.41-.53"/>
      <line class="cls-21" x1="171.97" y1="445.22" x2="171.5" y2="446.08"/>
      <path class="cls-21" d="M354.02,64.8s-.03-.49-.15-1.28l.15,1.28Z"/>
      <path class="cls-21" d="M376.62,86.43s-.81-10.41-10.24-10.41h-.81s-1.14-10.9-11.55-11.22c0,0-7.42-.3-11.26,8.03,0,0-2.15-8.52-8.24-3.37,0,0,5.33-5.8,8.33.09,0,0,5.27-6.34,11.01-6.03-.68-4.42-4.21-18.44-21.31-11.41,0,0-4.72-5.02-10.9-1.94,0,0-15.03-16.59-31.99-2.34,18.83,3.56,23.69,16.99,23.69,16.99,10.89-1.42,10.28,10.78,10.28,10.78-1.02-9.87-11.19-8.75-11.19-8.75-3.66-12.72-24.28-17.69-24.28-17.69,0,0-29.76-1.61-38.38,22.94,0,0-14.64,2.76-13.82,13.33,0,0-5.2,2.11-5.2,6.51,0,0-17.31,3.17,1.95,4.07,0,0,6.83,5.53,21.95,0,0,0,6.83,4.72,21.63-3.74,0,0,2.6-1.63,15.29,0,0,0,2.77-.14,6.02-.72,0,0,7.81,2.51,13.01-1.07,0,0,22.44,5.04,36.75,0,0,0,13.66,5.04,24.72,2.11,0,0,29.76,0,4.55-6.18"/>
      <path class="cls-21" d="M565.36,455.14s-2.1-10.51-8.83-10.51h-.7s3.08-8.41-4.48-8.13c0,0-.14-11.98-10.66-5.04-13.62,8.98-.76.08-.75-.01,0,0-.89-10.97-17.73-10.82,0,0-16.07,3.98-20.92,12.63,0,0-10.75-2.52-12.83,6.35,0,0-.74-8.73,12.36-8.4-.91.32,8.13-8.96,20.36-11.5l1.03.93s-22.75-23.5-63.43,1.16c0,0-3.26-3.5-4.67,1.4,0,0-7.97-5.46-12.47,9.79,7.52,1.59,8.55,8.05,8.55,8.05,5.01-5.18,9.09-.27,9.09-.27,10.35-2.32,10.53,4.73,10.53,4.73-2.59-6.07-10.8-3.12-10.8-3.12-5-4.82-9.18,1.25-9.18,1.25-1.41-7.23-8.52-9.5-8.52-9.5,0,0-9.34-3.64-11.72,14.29,0,0-5.88-1.82-8.55,7.01,0,0-22.56,9.54,13.45,7.5,0,0,11.27-6.19,18.67-1.38,0,0,10.76,6.46,21.68-1.09,0,0,22.98,5.11,32.09,1.09,0,0,17.41,3.46,22.51,0,.65-.44,1.13-.78,1.48-1.05,2.62,0,8.43-.31,14.83-2.68,0,0,3.48,9.35,21.28,2.65,0,0,6.74-2.37-1.67-5.31"/>
      <path class="cls-21" d="M563.8,273.74c2.6-12.72-10.89-14.6-10.89-14.6.97-4.55-2.93-1.83-2.93-1.83-1.14-21.51-20-12.97-20-12.97,0,0-5.91,5.09-7.85,9.4.09-.47,1.75-7.95,7.14-11.34-11.27-29.14-32.47-3.59-32.47-3.59-1.79-6.02-9.59-.32-9.59-.32.16-4.39-3.57-.33-3.57-.33-6.42-17.33-23.78,9.2-23.78,9.2,6.91,1.62,9.68,8.66,9.68,8.66-3.12-5.06-10.63-7.29-10.63-7.29-20.65-6.99-30.57,16.26-30.57,16.26-12.15-5.84-7.3,10.68-6.73,12.52-.3.05-.6.11-.92.17-35.61,6.67,7.81,5.2,7.81,5.2,15.77,9.44,41.79-4.39,41.79-4.39,3.71,8,15.45,6.66,15.45,6.66l-.12-1.24-1.18-1.54v-4.55l-1.01-1.24.36-2.07-.83-1.24.65-2.19-.83-1.48.77-7.56-.53-1.19-.83-.49-.53-3.35.35-.59-.35-1.52.24-2.74,2.66.77,3.19-.23,3.13-1.84,1.71,1.19h6.15l2.31-1.19.71-1.41h1.36l1.24,2.89h2.07l1.77,6.5-1.3.89v.63h.24l-1.72,2.03,1.72,2.77-.85,5.04v5.36l-2.45,4.07,1.42,7.81c11.94,11.79,24.27-1.32,26.71-4.18.15.09.29.18.45.27,9.43,5.86,21.63-1.46,21.63-1.46,18.21,9.43,20-8.33,20-8.33-3.25,2.08-10.25,0-10.25,0"/>
      <path class="cls-21" d="M755.05,72.93l9.43-3.74s-3.25-1.95-19.84,2.76c0,0,2.93-13.2-16.91-10.91,0,0-8.39.67-12.47,11.41,0,0,.34-10.68,11.04-13.74,0,0-9.14-17.66-22.97-7.9-.67.64-34.49-34.37-53.5,11.87,0,0-5.95-1.13-8.59,4.68,7.48.64,9.33,3.99,9.33,3.99-2.19-2.68-9.84-2.66-9.84-2.66,0,0-25.09-.32-25.22,36.67,7.03-4.16,17.92-.98,17.92-.98,5.81-6.39,13.12-3.14,13.12-3.14-.81-9.99,6.74-8.95,6.74-8.95-6.74,1.28-4.65,12.2-4.65,12.2-8.37-5.7-14.99,2.58-14.99,2.58-9.18-4.62-18.13,0-18.13,0,0,0-4.88,4.55-4.55,10.9,0,0-4.39,1.46-4.23,12.52,0,0-5.85,4.88-4.39,9.43,0,0-17.89,12.46-17.56,16.72.33,4.26,48.3-26.48,48.3-26.48,0,0,14.64,6.02,27.16-8.29l11.87-5.04s-4.61-13.84-8.24-17.9c-.09-.54-16.11-36.59,14.81-40.49.02-.09,27.37-.07,16.24,40.49,0,0-5.41,10.25-7.68,13.34,0,0,27.48-16.59,34.64-24.39,0,0,18.05,3.25,28.46-10.73,0,0,9.43-2.93,4.72-4.23"/>
      <path class="cls-21" d="M641.23,67.37v.02s0-.01,0-.02h0"/>
      <path class="cls-21" d="M752.55,260.36c-4.48-12.5-17.09-10.2-17.09-10.2-31.1-39.09-48.62-10.09-48.62-10.09l-7.96,14.23s-5.69-5.61-9.99-1.34c-.54.58-.93,1.12-1.16,1.48-.09.14-.17.27-.26.42,0,0,.09-.16.26-.42.37-.59.76-1.08,1.16-1.48,1.79-1.92,5.18-4.18,9.62-.78l7.62-13.32c-2.8-3.53-9.67-.06-9.67-.06-30.99-29.82-52.38,38.74-55.39,49.13l13.21,7.53c6.32-16.56,16.23-8.39,16.23-8.39,6.32-5.67,10.53.86,10.53.86-4.81-4.93-10.54,1.31-10.54,1.31-8.25-9.35-15.6,9.24-15.6,9.24-2.71-2.41-14.2-9.24-14.2-9.24-30.4-14.26-11.98,34.88-11.98,34.88-10.17.46-4.62,10.91-4.62,10.91-32.17,27.64,18.21-4.9,18.21-4.9,13.86,6.75,23.94-10.44,23.94-10.44,9.24,1.66,8.97-9.06,8.97-9.06,3.97,1.76,5.83-1.91,5.83-1.91,40.21-.28,23.4-12.05,23.4-12.05,12.33-1.12,27.46-15.83,27.46-15.83,15.41,4.48,35.87-10.93,35.87-10.93,11.77-.7,9.39-6.45,9.39-6.45,22.28-9.95-4.62-3.11-4.62-3.11"/>
      <path class="cls-19" d="M100.36,167.48c4.7-.24,9.33-.09,14,.45,6.98.81,7.6-9.67,1.58-11.69.22,1.45.43,2.9.65,4.36-1.19.91-2.37,1.82-3.56,2.74-.45-.09-.89-.18-1.34-.26,3.83,1.73,9.18-.22,8.96-5.14,0,.08,0,.15-.01.23-1.39,1.39-2.77,2.77-4.16,4.16.22-.08.44-.17.66-.25-1.93-.51-3.86-1.02-5.79-1.53l.48.38c3.17,2.49,6.96,2.21,9.35-1.2,1.08-1.55,2.16-3.09,3.24-4.63.36-.52.72-1.03,1.08-1.55,1.33-1.36,1.21-1.67-.36-.93,1.94-.07,4.29-1.05,5.14-2.95.12-.16.24-.31.36-.47-2.24-.91-4.48-1.82-6.72-2.74-.14-1.81-.38-2.11-.73-.88-.32.71-.58,1.44-.77,2.19-.28,1.25-.21,2.51-.17,3.78.09,2.93.13,4.62-3.54,4.04-7.5-1.19-10.72,10.28-3.16,11.48,7,1.11,14.58-.35,17.6-7.57,1.41-3.36.52-6.65,1.25-10.07.74-3.51,1.49-5.45-.2-8.99-1.02-2.13-4.46-3.66-6.72-2.74-3.19,1.3-6,2.64-7.48,5.94,1.71-.98,3.43-1.96,5.14-2.95-7.25.25-10.57,7.75-14.24,13l9.35-1.21c-4.86-3.82-11.8-1.3-11.5,5.43,2.99-1.71,5.97-3.43,8.96-5.14-4.7-2.12-10.86-1.87-12.54,4.08-1.55,5.52,3,9.29,7.62,10.85.53-3.9,1.06-7.8,1.58-11.69-4.67-.54-9.31-.69-14-.45-7.62.39-7.67,12.3,0,11.91"/>
      <path class="cls-19" d="M132.15,150.78c1.16-1.06,1.82-2.39,2.34-3.85.25-.79.28-1.58.11-2.37-.04-.79-.27-1.53-.71-2.21-.37-.69-.89-1.25-1.53-1.67-.57-.53-1.25-.88-2.02-1.07-.53-.07-1.06-.14-1.58-.21-1.08,0-2.08.27-3.01.81-.4.31-.8.62-1.21.93-.74.74-1.25,1.62-1.53,2.63-.03.07-.05.15-.08.22.2-.47.4-.95.6-1.42-.1.21-.21.41-.36.6.31-.4.62-.8.93-1.2-.11.14-.24.27-.37.4-.58.54-.99,1.18-1.23,1.92-.37.71-.54,1.47-.51,2.29-.03.82.14,1.58.51,2.29.24.74.65,1.38,1.23,1.92.4.31.8.62,1.21.93.93.54,1.93.81,3,.81.53-.07,1.05-.14,1.58-.21,1.01-.28,1.88-.79,2.63-1.53"/>
      <path class="cls-19" d="M128.65,151.27c7.66,0,7.67-11.91,0-11.91s-7.67,11.91,0,11.91"/>
      <path class="cls-19" d="M130.76,146.74c2.74-.03,5.3-.7,7.96-1.3,2.52-.56,5.03-.51,7.59-.52,3.83-.03,3.84-5.98,0-5.95-2.33.02-4.66-.04-6.97.32-2.89.44-5.64,1.48-8.59,1.51-3.83.04-3.84,5.99,0,5.95"/>
      <path class="cls-19" d="M113.85,163.08c2.53.15,5.05.29,7.57.44,1.98.11,4.14.18,5.73-1.01,1.61-1.21,2.15-3.36,2.4-5.35"/>
      <path class="cls-19" d="M113.85,166.06c4.03.23,8.88,1.25,12.8-.02,3.65-1.19,5.25-4.52,5.78-8.09.56-3.75-5.18-5.37-5.74-1.58-.47,3.17-1.4,4.33-4.76,4.2-2.69-.1-5.38-.31-8.07-.46-3.83-.22-3.81,5.73,0,5.95"/>
      <path class="cls-19" d="M93.28,177.51c1.46-.05,3.03-.27,4.47-.08-.5-.14-1-.27-1.5-.41-.37-.58-.43-.66-.18-.24.09.17.19.33.31.48.41.6.86,1.03,1.49,1.4,1.14.66,2.67.47,3.61-.46,1-1,1.02-2.39.47-3.61-.82-1.82-2.19-3.86-4.24-4.39-2.1-.55-4.29,0-6.19.92-1.45.7-1.83,2.76-1.07,4.07.87,1.48,2.62,1.77,4.07,1.07.25-.12.62-.25.89-.29.09-.02,1.12-.02.71-.03-.55,0-.34-.43-.09.22.19.49.55.95.77,1.44,1.36-1.36,2.71-2.72,4.07-4.07.68.39.58.65.26.13-.19-.33-.45-.68-.71-.96-.71-.74-1.68-1.11-2.68-1.22-1.46-.15-3,.03-4.47.08-3.82.14-3.84,6.09,0,5.95"/>
      <path class="cls-19" d="M103.2,178.59c1.92-1.23,3.71-1.26,5.64-.06,1.1.68,2.72.47,3.61-.47,2.18-2.29,3.84-1.95,6.14-.04.7-1.69,1.4-3.39,2.11-5.08-2.62-.07-5.1.22-7.65.85-3.72.93-2.14,6.67,1.58,5.74,2.04-.51,3.97-.7,6.07-.64,2.43.07,4.12-3.41,2.1-5.08-4.84-4.01-9.95-4.8-14.56.04,1.2-.15,2.4-.31,3.61-.47-3.67-2.27-8.01-2.27-11.65.06-3.22,2.06-.23,7.21,3,5.14"/>
      <path class="cls-19" d="M126.3,178.32c.88-.87,1.88-1.96,3.19-2.08,1.35-.13,2.81.86,3.94,1.48.5-1.85,1-3.7,1.5-5.55-1.19-.04-2.4-.02-3.56.26-.96.23-1.99.99-2.98.93.7.29,1.4.58,2.11.87l-.29-.27c-2.81-2.6-7.03,1.6-4.21,4.21,2.7,2.5,5.84-.14,8.94-.04,2.95.09,4.06-4.13,1.5-5.55-2.36-1.31-4.88-2.52-7.66-2.23-2.69.28-4.81,1.92-6.68,3.76-2.74,2.69,1.47,6.89,4.21,4.21"/>
      <path class="cls-19" d="M140.82,173.72c.07.3-.03.03,0-.14-.06.33-.01-.02.05-.14-.08.15.16-.22.17-.23-.37.2.51-.14.51-.14,0,0,.39-.03.51-.04.11,0,.23-.01.34-.02.37,0,.21-.05-.48-.14-.36-.36-.71-.71-1.07-1.07.06.08.12.17.17.25-.14-.5-.27-1-.41-1.5,0,.1.02.2.03.3.14-.5.27-1,.41-1.5.1-.19-.57.37-.73.46-.39.23-.78.43-1.2.59-1.51.55-2.53,2.02-2.08,3.66.4,1.45,2.15,2.63,3.66,2.08,1.94-.71,4.48-1.85,5.48-3.78,1.46-2.82-1.17-5.37-3.95-5.29-2.06.06-4.13.59-5.59,2.12-1.58,1.65-2.06,3.93-1.58,6.12.34,1.57,2.17,2.49,3.66,2.08,1.62-.45,2.42-2.09,2.08-3.66"/>
      <path class="cls-19" d="M150.74,167.96c-.07-.7.02-1.27.13-1.94.23-1.48,1.49.59-.55-1.39-.29-.7-.58-1.4-.87-2.1.02,1.96-2.47,3.02-3.89,3.67-2.3,1.05-4.6,2.1-6.9,3.15-3.48,1.59-.46,6.72,3,5.14,4.98-2.27,14.1-4.87,13.74-11.97-.17-3.32-3.91-3.73-6.34-2.62-3.13,1.42-4.61,4.74-4.28,8.07.38,3.78,6.34,3.82,5.95,0"/>
      <path class="cls-39" d="M244.17,448.74s-.06-6.25,6.21-7.66c0,0,3.07-4.22,6.85-3.07,0,0,10.82-10.37,15.1-8,0,0,10.43-8.56,20.41-6.17,0,0,3.2-4.58,10.43-2.98,0,0,5.76-3.26,9.73.58,0,0,4.05-3.33,7.14-.19,0,0,6.42-1.2,8.47,2.6,0,0-3.39,2.71-7.42,3.1,0,0-3.26.26-3.46,1.85-.19,1.6,3.39,2.24,3.39,2.24,0,0,7.3-1.02,10.3,0,3.01,1.02-1.15,1.41-1.15,1.41,0,0,.51,3.46,5.5,3.65,4.99.19,4.99,1.15,4.99,1.15,0,0,3.71,1.02,5.18,3.52,1.47,2.5,4.93.99,4.93.99,0,0,2.91-.87,3.81,2.54,0,0,1,1.24,2.59.87,1.59-.37,7.27,3.44,7.27,3.44,0,0,2.62,2.61,2.92,5.31,0,0,2.45,2.5,2.7,5.25,0,0,4.23,1.35,6.06,14.62,0,0-1.73-3.39-3.21-3.39,0,0-.88-3.13-2.44-3.41,0,0-1.12-1.32-1.12-3.01,0,0-.92-1.17-1.43-.36,0,0-2.34-4.08-4.33-4.64,0,0-6.62-1.48-7.69-5.15,0,0-2.39,10.07-8.81-3.26,0,0-1.23-3.61-5.96-2.65,0,0-.89,3.87-9.43-4.69,0,0-3.95-2.19-6.6,1.02,0,0-2.29.87-3.77-.41,0,0-6.67.92-7.18-1.78,0,0-9.27,1.38-10.29-1.78,0,0-12.48,1.99-.1-8.05,0,0-1.63-1.02-.25-2.29,0,0-14.37,2.7-13.6-.25,0,0-10.19,4.84-13.6,3.97,0,0-4.64,2.19-5.55.81,0,0-4.69,3.52-6.98,2.6,0,0-4.33,5.5-7.74,4.13,0,0-11.75,10.35-11.86,7.54"/>
      <path class="cls-2" d="M244.17,448.74s-.06-6.25,6.21-7.66c0,0,3.07-4.22,6.85-3.07,0,0,10.82-10.37,15.1-8,0,0,10.43-8.56,20.41-6.17,0,0,3.2-4.58,10.43-2.98,0,0,5.76-3.26,9.73.58,0,0,4.05-3.33,7.14-.19,0,0,6.42-1.2,8.47,2.6,0,0-3.39,2.71-7.42,3.1,0,0-3.26.26-3.46,1.85-.19,1.6,3.39,2.24,3.39,2.24,0,0,7.3-1.02,10.3,0,3.01,1.02-1.15,1.41-1.15,1.41,0,0,.51,3.46,5.5,3.65,4.99.19,4.99,1.15,4.99,1.15,0,0,3.71,1.02,5.18,3.52,1.47,2.5,4.93.99,4.93.99,0,0,2.91-.87,3.81,2.54,0,0,1,1.24,2.59.87,1.59-.37,7.27,3.44,7.27,3.44,0,0,2.62,2.61,2.92,5.31,0,0,2.45,2.5,2.7,5.25,0,0,4.23,1.35,6.06,14.62,0,0-1.73-3.39-3.21-3.39,0,0-.88-3.13-2.44-3.41,0,0-1.12-1.32-1.12-3.01,0,0-.92-1.17-1.43-.36,0,0-2.34-4.08-4.33-4.64,0,0-6.62-1.48-7.69-5.15,0,0-2.39,10.07-8.81-3.26,0,0-1.23-3.61-5.96-2.65,0,0-.89,3.87-9.43-4.69,0,0-3.95-2.19-6.6,1.02,0,0-2.29.87-3.77-.41,0,0-6.67.92-7.18-1.78,0,0-9.27,1.38-10.29-1.78,0,0-12.48,1.99-.1-8.05,0,0-1.63-1.02-.25-2.29,0,0-14.37,2.7-13.6-.25,0,0-10.19,4.84-13.6,3.97,0,0-4.64,2.19-5.55.81,0,0-4.69,3.52-6.98,2.6,0,0-4.33,5.5-7.74,4.13,0,0-11.75,10.35-11.86,7.54Z"/>
      <path class="cls-27" d="M366.72,159.35h0s-.01.02-.02.02c0,0,.01-.02.02-.02"/>
      <path class="cls-27" d="M373.52,147.93s-12.1-1.3-15.24,1.08l-6.12-.42c-1.11,1.01-17.67,2.41-21.18,1.38-3.51-1.02-6.88.45-6.88.45,0,0-4,1.95-5.07,1.36-1.07-.59-4.1-1.19-4.1-1.19-.49,2.32-4.34-.28-4.34-.28,0,0-6.54-2.33-7.71-.63-1.17,1.7-8.15.63-8.15.63-6.2,2.44-14.1-.26-14.1-.26-15.56,3.88-15.43,0-15.43,0-2.51.29-9.7,1.02-13.06.53-4.11-.6-9.29,1.78-9.29,1.78,0,0,22.28,39.01,63.39,37.5,8.19-.3,15.51-1.56,22.05-3.48-125.62-27.25,38.37-27.03,38.41-27.03,3.46-4.8,5.76-8.76,5.76-8.76.22-.67.53-1.5,1.04-2.66"/>
      <path class="cls-41" d="M330.06,184.96c9.3-2.63,16.88-6.67,22.97-11.28.03-.02.06-.04.08-.06,4.23-3.28,8.55-7.45,12.49-12.76,0,0,0-.01.01-.02-.03,0-151.86-.2-35.56,24.11"/>
      <path class="cls-19" d="M129.83,143.45c2.73-.09,5.36.13,8.07.43,2.17.23,4.58-.1,6.68.38,3.72.86,5.32-4.83,1.58-5.74-5.25-1.28-11.24-.72-16.61-.58-3.82.1-3.84,6.05,0,5.95,4.75-.12,10.4-.76,15.03.37.53-1.91,1.05-3.83,1.58-5.74-2.36-.54-4.81-.27-7.21-.48-3.07-.27-6.04-.64-9.13-.54-3.82.12-3.84,6.07,0,5.95"/>
      <path class="cls-19" d="M146.53,142.14c0,1.49.81,2.61,1.76,3.69,1.16,1.32,3.09-.36,2.34-1.8-.57-1.1-1.14-2.19-1.71-3.29-.88-1.7-3.43-.2-2.57,1.5.66,1.3,1.41,2.57,1.68,4.02.36,1.88,3.23,1.08,2.87-.79-.32-1.69-1.21-3.21-1.98-4.73-.86.5-1.71,1-2.57,1.5.57,1.1,1.14,2.19,1.71,3.29.78-.6,1.56-1.2,2.34-1.8-.4-.45-.88-.95-.89-1.58-.01-1.92-2.99-1.92-2.98,0"/>
      <path class="cls-19" d="M110.28,151.33c-.35-.28-.71-.55-1.07-.83-.12.91-.24,1.81-.36,2.72.73-.27,1.52-.26,2.14.27.61.52,1.51.6,2.1,0,.54-.54.61-1.58,0-2.1-1.39-1.2-3.28-1.68-5.04-1.04-1.28.46-1.39,1.94-.35,2.72.16.12.31.24.47.36.63.5,1.49.61,2.11,0,.52-.52.63-1.6,0-2.11"/>
      <path class="cls-19" d="M133.01,156.03c1.37.18,2.56-.04,3.87-.45,1.27-.4,2.54-.35,3.86-.29,1.02.05,1.62-.99,1.43-1.88-.24-1.12-1-2.09-2.1-2.47-1.55-.54-2.38.5-3.58,1.27-1.6,1.04-.11,3.62,1.5,2.57.46-.3,1.17-1.22,1.31-.58.48-.63.96-1.26,1.43-1.88-1.24-.06-2.48-.09-3.71.15-1.42.27-2.52.79-4.02.59-1.89-.25-1.88,2.73,0,2.98"/>
      <path class="cls-19" d="M149.73,148.06c1.91,0,1.92-2.98,0-2.98s-1.92,2.98,0,2.98"/>
      <path class="cls-41" d="M560.56,495.31c-8.24-6.04-20.61-1.96-20.61-1.96,0,0-2.88,1.78-9.27,1.1l.13.02-2.31,5.23.94-.75-.65,2.23,2.49-.58-1.84,1.91,2.85,1.37-3.75.12,1.25,2.43-3.36-1.41-.67,2.35-.86-1.88-2.42,1.88.08-2.27-5.4.24,2.31-1.45-3.36-2.89,3.91.74-1.92-2.78,2.89,1.57-.94-2.15,1.41.74-.39-1.3,1.8,1.3.9-1.84.27,1.84,2.95-5.26h.09c-.69-.13-1.4-.3-2.14-.5-10.45-2.85-15.45.79-15.45.79l-8.34,1.95c0,9.19,1.48,24.65,1.48,24.65l1.75,2.69,8.08-4.95-4.41,6.44,5.37,2.09-5.14,2.09,2.38.96-6.76,1.75,1.72,3.79-8.14-2.66-8.48,4.47.28-3.28h-3.73l1.24-1.85-8.08-1.2,4.01-3.2-2.15-.53,1.78-1.33-4.44-5.22,8.03,1.58.85-2.71-2.24-25.8h0c-.7-.34-1.39-.73-2.06-1.16-10.8-7.03-19.22.65-19.22.65-.82.87-1.73,1.57-2.69,2.14h0s3.64,7.45,1.91,13.3l12.29-6.65-9.98,12.26,6.1,4.62-10.32-.33.43,3.63-3.49-2.14-3.43,6.68-2.14-5.79-1.75,2.36-.36-4.08-6.72,1.71,2.38-4.55-3.62-3.19,3.62.17-3.62-4.12,7.5,2.23s1.26-6.36-.89-14.07h0c-2.2-.24-3.68-.64-3.68-.64-12.87-9.9-24.95,3.99-24.95,3.99,0,0,8.87,67.08,75.85,61.03,66.98-6.06,71.31-64.09,71.31-64.09-2.65,3.24-6.47-2.51-6.47-2.51"/>
      <g class="cls-31">
        <g class="cls-24">
          <path class="cls-11" d="M453.72,358.73s2.07-.7-1.02-4.62l1.49-.67s-1.8-8.3-1.49-11.13h1.24s-1.41-3.04-1.27-5.1h1.06l3.05-1.75.72,1.96s.41-1.55,1.55-1.55,5.21.72,5.21.72l.77-.5,1.49,1.58,1.08-2.22-1.7-1.55.46-1.34h-1.7l3.81-4.02v-1.35l1.44.79v-2.94l-.67-3.56-2.73,1.75-.15,1.19-2.32,2.77.98-3.7-.57-2.73-.72,1.08-.05-.88,2.99-3.92-.82-2.73-2.94,1.13,1.08-1.75h-.88l1.13-2.37-1.8-1.17-2.32,3.34.41-1.75-.36-.46.77-1.7h-1.18l.1-1.55-2.01,1.49h-1.29l-.21,7.73-.93,1.49-.93,3.66-.36-7.16.83-3.4-1.24-.05v-2.89l-1.33.31-.31,1.86-2.22,1.03,1.03,1.75-.67,7.89-.93-2.47-2.17,1.65v-3.25h1.39l-.05-1.99h-1.03l-.05-2.7-.26-4.74-1.75-.21v1.6l-1.8,1.18.26,5.36-.57.46v-2.27l-1.44-.46-1.08-2.78-1.03.62.26,2.32-.98.36.98,6.29h-.98l.26,1.29-1.24.77,1.44,3.92-1.08,1.29-2.47-4.28.98-4.23-1.55-.21-.62-1.91.82-1.34-1.24-1.08-.82,1.44-1.44-2.16-1.44,1.47.88.9-1.6,3.56,1.55,1.65-.51,5.72,1.35.47,1.23,5.4h.88l.36,3.05,2.89-.93.57,1.44s.88-1.39,3.25.31,1.75,2.06,1.75,2.06l1.75-.6.62,4.16-1.86,2.99.98,4.2-.83,1s7.05,7.23,9.89,7.66"/>
        </g>
      </g>
      <g class="cls-31">
        <g class="cls-23">
          <polygon class="cls-11" points="464.86 353.01 463.31 356.65 464.08 358.6 462.68 360.22 465.42 360.72 465.42 363.1 475.11 363.52 476.35 364.57 477.82 363.17 489.32 363.45 490.15 364.08 492.04 363.03 493.63 365.9 496.6 364.01 495.96 362.68 503.18 362.61 503.6 361.42 506.69 362.96 509.24 361.14 512.64 361.7 515.47 361.77 515.47 360.22 517.16 359.11 517.55 355.44 518.76 356.16 519.52 355.81 521.19 355.81 523.01 353.7 525.11 354.48 525.11 348.81 526.3 347.58 525.6 346.56 526.3 345.86 525.46 341.94 523.78 340.85 525.53 337.27 523.29 334.37 524.41 331.92 521.61 329.65 522.25 325.89 519.93 325.61 519.52 327.06 518.46 325.61 504.88 326.03 503.11 324.14 502.42 326.67 497.37 326.74 492.11 327.06 491.62 325.19 486.93 327.85 487.46 330.93 483.49 333.25 483.19 336.81 481.08 334.05 479.43 335.95 476.28 335 474.8 338.58 476.85 340.85 478.66 342.08 476 343.2 474.8 341.47 472.42 343.22 468.99 344.46 468.15 343.82 466.54 346.21 463.17 347.58 464.58 349.65 464.22 351.95 464.86 353.01"/>
        </g>
      </g>
      <path class="cls-41" d="M375.59,474.57c-.98-2.11-2.53-3.13-3-3.4-.09-.05-.16-.13-.21-.23-.3-.6-1.43-2.8-2.1-2.55-.77.29-2.12-3.57-2.12-3.57-.1.68-.77.82-.77.82.08-1.31-3.24-4.18-4.25-5.02-.15-.12-.34-.14-.53-.09-1.05.26-4.29-1.67-5.49-2.42-.24-.15-.55-.1-.73.12-1.1,1.46-2.42,1.39-3.58,1.52-1.25.15-3.57-2.36-5.5-6.13-1.66-3.24-5.19-3.62-6.13-3.66-.14,0-.26.04-.37.13-.48.4-2.3,1.35-5.97-2.79-4.36-4.92-8.72-1.81-8.72-1.81-.84,1.25-4.01.17-4.75-.1-.11-.04-.22-.04-.33,0-3.66,1.01-5.82-.1-6.21-.34-.04-.03-.07-.05-.11-.09-.29-.32-2.17-2.11-5.82-.84-3.26,1.13-5.18-1.22-5.77-2.11-.13-.2-.36-.27-.6-.23-1.93.36-5.09-.58-5.67-.76-.07-.02-.12-.05-.18-.1-.43-.36-2.15-2.22,1.95-5.86,4.61-4.09.07-3.24-.97-2.96-1.04.28-4.87.56-7.01.17-1.85-.34-2.78-.09-3-.02-.03.01-.05.02-.08.04-.46.25-5.65,2.98-9.1,2.98-2.58,0-3.32.55-3.53.87-.09.13-.22.24-.38.26l-2.53.42c-.06,0-.13,0-.19,0-1.57-.31-2.4.44-2.68.77-.09.1-.2.16-.33.18-1.98.32-4.14.94-4.7,1.1-.09.03-.17.08-.24.15-3.97,4.03-4.89,3.29-4.89,3.29-4.6.46-5.17,2.05-5.22,2.61-.01.14-.09.26-.2.35l-4.76,3.96c-.51.42,0,1.21.6.93,24.85-11.81,38.18-8.58,48-3.84,10.37,5,17.32,27.2,9.27,42.81-8.05,15.61-20.49,22.68-31.22,21.46-8.98-1.02-15.91,1.55-17.93,2.41-.32.14-.44.54-.24.82,2.48,3.51,5.28,2.6,7.25,2.36,2.29-.28,4.35,2.82,6.66,2.82,2.32,0,5.61-2.56,7.32-.12,1.44,2.06,3.41,2.82,3.98,3,.11.03.25,0,.34-.07.75-.6,4.72-1.42,5.31-.12.56,1.24,5.02,1.6,5.02,1.6.17-.31,6.52,1.17,7.79,2.92,1.37,1.89,6.47,2.33,8.63,2.09,2.32-.25,8.27.71,9.77,2.14,1.74,1.67,5.53,2.01,7.44,1.97,2.04-.03,3.57,2.33,5.77,3.12,2.27.82,8.41-1.76,11.04,2.6,2.45,4.06,13.19,4.58,14.95,4.64.16,0,.31-.06.42-.18,29.26-30.37,17.71-65.55,16.56-68.06M297.08,511.7c.1.43,9.15-8.87,12.69-15.15,0,0-6.66,12.68-12.69,15.15M325.95,466.17c-.28.12,7.8,17.14-3.98,39.64-.22,1.09,8.17-20.2,3.98-39.64M325.62,506.95l4.2-10.4s-.33,4.69-4.2,10.4M351.09,534.6c2.17-1.31,4.64-5.24,4.64-5.24-.73,3.56-4.64,5.24-4.64,5.24M348.45,533.69c4.77-3.26,11.93-22.03,12.02-22.94-4.15,16.4-11.9,23.33-12.02,22.94M357.89,465.29c9.38,11.05,4.65,34.78,4.3,33.42,2.67-16.11-3.86-33.57-4.3-33.42"/>
      <path class="cls-39" d="M257.69,513.42c1.61.25,5.52.74,7.97-.13,0,0,3.21,4.55,6.71,2.38,3.49-2.17,5.87-.21,5.87-.21l-4.26.49s5.87,1.61,8.8,1.12c2.93-.49,4.05.56,4.05.56h-3.35s.14,1.96,3.7,1.82c3.56-.14,4.05.56,4.05.56,0,0,5.65-1.19,7.51,0h-2.34s6.01,2.1,7.55,3c0,0,6.64-.63,8.66.63,0,0-4.33-.28-4.4,1.4,0,0,7.55-.63,9.22,1.68,0,0,3.21.14,4.12,1.68,0,0,6.85-.21,8.66,1.19h-3.49s2.1,2.17,8.31,1.82c6.22-.35,7.06,1.32,7.06,1.32l-2.79-.34s3.28,2.65,6.85,2.72c3.56.07,5.38,1.26,5.38,1.26h-3.07s1.78,1.82,4.56,1.82,5.5,2.1,5.5,2.1l-2.93-.56s-1.19,1.26.42,1.26,3.63,1.04,3.63,1.04l-.77.81s-10.91.49-15.3-4.53c0,0-1.12-2.83-7.11-2.53-5.99.3-4.63-.42-6.81-1.84-2.19-1.42-1.29-1.26-3.73-1.46-2.44-.2-4.09-.05-6.49-1.85-2.4-1.8-8.33-2.24-10.86-2.02-2.53.22-6.25-.98-7.8-2.25-1.56-1.26-3.99-2.88-8.42-2.95s-4.14-1.68-4.14-1.68c0,0-2.4-1.09-4.74.04-2.34,1.13-5.44-3.43-5.44-3.43,0,0-.93-1.05-3.8,0-2.77,1.01-3.67,1.2-6.76-.94-2.75-1.9-3.38-.81-3.65-.86,0,0-4.31.84-6.45-2.55-.17-.26.05-.61.36-.56"/>
      <path class="cls-37" d="M152.07,49.09l.04,1.23s.01-.49-.04-1.23"/>
      <path class="cls-21" d="M188.3,83.34s2.28-19.84-10.08-15.61c0,0,.65-9.27-8.62-7.81,0,0-.81-15.12-17.48-9.59,0,0-10.28,7.13-10.54,14.1,0,0-3.27-7.06-9.38-2.07,0,0,4.73-5.77,8.52-1.21,0,0,4.3-9.15,11.36-12.06-.26-3.3-1.94-11.52-12.56-3.15,0,0-28.78-23.91-38.54,1.79,0,0-28.62-3.42-39.19,25.21,0,0-11.71-2.28-17.73,17.56,0,0-20.17,10.41,3.58,4.39,0,0,49.6,7.16,66.03-7.16,0,0,16.31,6.67,21.08-6.99,0,0,8.31.65,15.98-2.28,0,0,7.17,9.27,18.23,3.74,0,0,6.83,8.78,12.2,6.51,0,0,4.07,6.99,7.15,5.2,0,0,23.91-2.44,0-10.57M125.25,61.15l-5.77-2.99-2.67,12.72-2.25-12.29-5.77,4.49,3.42-6.42-9.41-3.14,10.05-.93-4.49-7.27,6.42,4.28,2.57-11.76,1.71,11.33,5.56-2.99-3.01,6.05,9.22.15-8.42,3.32,2.86,5.45Z"/>
      <polygon class="cls-37" points="120.37 52.77 122.61 48.27 118.47 50.5 117.2 42.06 115.29 50.81 110.51 47.63 113.85 53.04 106.37 53.73 113.38 56.07 110.83 60.85 115.13 57.5 116.8 66.65 118.79 57.18 123.09 59.41 120.96 55.36 127.23 52.88 120.37 52.77"/>
      <path class="cls-21" d="M188.46,268.57c-.65-9.27-6.34-7.48-6.34-7.48.65-14.96-11.06-7.64-11.06-7.64-4.07-9.76-14.15-6.02-14.15-6.02-.68.16-8.93,5.5-10.42,10.46.85-2.83,3.81-8.93,9.76-11.67-26.59-49.12-51.87-6.26-51.87-6.26-6.5-3.09-14.64,1.95-14.64,1.95l1.37-.74c6.11,6.04,8.96,12.93,8.96,12.93,4.74-4.15,6.76.71,6.76.71-2.49-3.8-7.12,2.13-7.12,2.13-1.78-6.64-9.97-15.04-9.97-15.04-17.56-13.01-26.35,21.95-26.35,21.95-16.1,0-17.73,17.24-17.73,17.24-37.89,15.12,13.99,3.58,13.99,3.58,8.46,4.72,29.76-4.72,29.76-4.72,13.99,12.68,48.14-4.23,48.14-4.23,10.41,9.76,19.51-.49,19.51-.49,13.82,10.25,29.11-.65,29.11-.65,37.89-4.07,2.28-6.02,2.28-6.02M132.81,242.87l2.86,5.45-5.77-2.99-2.67,12.72-2.25-12.29-5.77,4.49,3.42-6.42-9.41-3.14,10.05-.93-4.49-7.27,6.42,4.28,2.57-11.76,1.71,11.33,5.56-2.99-3.01,6.05,9.21.15-8.42,3.32Z"/>
      <polygon class="cls-37" points="133.04 235.43 128.9 237.66 127.63 229.22 125.72 237.98 120.94 234.79 124.28 240.21 116.8 240.9 123.81 243.23 121.26 248.01 125.56 244.67 127.23 253.82 129.22 244.35 133.52 246.58 131.39 242.52 137.66 240.05 130.8 239.94 133.04 235.43"/>
      <polygon class="cls-37" points="136.29 290.91 130.41 294.07 128.6 282.09 125.89 294.52 119.1 290 123.85 297.69 113.22 298.67 123.17 301.99 119.55 308.77 125.66 304.02 128.03 317.02 130.86 303.57 136.96 306.73 133.94 300.98 142.84 297.46 133.1 297.3 136.29 290.91"/>
      <polygon class="cls-37" points="103.64 314.77 101.31 316.03 100.59 311.27 99.51 316.21 96.81 314.41 98.7 317.47 94.48 317.86 98.43 319.17 96.99 321.87 99.42 319.98 100.36 325.15 101.49 319.8 103.91 321.06 102.71 318.77 106.25 317.38 102.38 317.31 103.64 314.77"/>
      <polygon class="cls-37" points="73.29 331.32 71.94 332.05 71.52 329.29 70.89 332.15 69.33 331.11 70.42 332.88 67.97 333.11 70.27 333.87 69.43 335.44 70.84 334.34 71.39 337.34 72.04 334.24 73.45 334.97 72.75 333.64 74.8 332.83 72.56 332.8 73.29 331.32"/>
      <polygon class="cls-37" points="160.99 287.91 158.66 289.17 157.94 284.41 156.86 289.35 154.16 287.55 156.05 290.61 151.83 290.99 155.78 292.31 154.34 295.01 156.77 293.12 157.71 298.29 158.84 292.94 161.26 294.2 160.06 291.91 163.6 290.52 159.73 290.45 160.99 287.91"/>
      <polygon class="cls-37" points="177.81 309.73 174.24 311.65 173.15 304.38 171.5 311.92 167.39 309.18 170.27 313.84 163.83 314.44 169.86 316.45 167.67 320.56 171.37 317.68 172.81 325.56 174.52 317.41 178.22 319.32 176.39 315.83 181.78 313.7 175.88 313.61 177.81 309.73"/>
      <polygon class="cls-37" points="86.07 293.46 81.93 295.69 80.65 287.25 78.74 296.01 73.97 292.83 77.31 298.24 69.83 298.93 76.83 301.27 74.28 306.04 78.58 302.7 80.26 311.85 82.25 302.38 86.54 304.61 84.41 300.55 90.68 298.08 83.82 297.97 86.07 293.46"/>
      <path class="cls-41" d="M678.68,143l-.71-.95s-31.71,52.2,0,50.09c31.71-2.11.71-49.14.71-49.14M687.59,181.43c-.92,3.07-3.13,5.12-4.92,4.58-1.8-.54-2.51-3.47-1.59-6.54.92-3.07,3.13-5.12,4.92-4.58,1.8.54,2.51,3.47,1.59,6.54"/>
    </g>
  </g>
  <text class="cls-15" transform="translate(417 660)"><tspan x="0" y="0">v</tspan></text>
</svg>